<svg width="19" height="19" viewBox="0 0 19 19" fill="none" xmlns="http://www.w3.org/2000/svg">
<path d="M9.81061 0.304199C8.0383 0.304199 6.30578 0.829753 4.83215 1.8144C3.35852 2.79905 2.20997 4.19856 1.53173 5.83597C0.853492 7.47338 0.676034 9.27514 1.0218 11.0134C1.36756 12.7517 2.22101 14.3484 3.47423 15.6016C4.72745 16.8548 6.32415 17.7083 8.06241 18.054C9.80067 18.3998 11.6024 18.2223 13.2398 17.5441C14.8772 16.8658 16.2768 15.7173 17.2614 14.2437C18.2461 12.77 18.7716 11.0375 18.7716 9.2652C18.769 6.88941 17.824 4.61168 16.1441 2.93174C14.4641 1.2518 12.1864 0.306846 9.81061 0.304199ZM9.81061 1.5522C11.5725 1.55124 13.2811 2.15644 14.6496 3.2662L3.81061 14.1042C2.89577 12.972 2.32018 11.6039 2.15043 10.1582C1.98068 8.7125 2.22371 7.24829 2.8514 5.93495C3.47909 4.62161 4.46579 3.51283 5.69735 2.73687C6.9289 1.96091 8.35499 1.54949 9.81061 1.5502V1.5522ZM9.81061 16.9792C7.91268 16.9808 6.08133 16.2798 4.66961 15.0112L15.5566 4.1262C16.5505 5.23524 17.202 6.60843 17.4321 8.07978C17.6623 9.55114 17.4613 11.0577 16.8536 12.4173C16.2458 13.7768 15.2572 14.9313 14.0074 15.741C12.7575 16.5508 11.2999 16.9812 9.81061 16.9802V16.9792Z" fill="black"/>
</svg>
