<svg width="16" height="18" viewBox="0 0 16 18" fill="none" xmlns="http://www.w3.org/2000/svg">
<path d="M14.569 2.08792H12.041V1.72692C12.0407 1.31963 11.8788 0.929093 11.5908 0.641095C11.3028 0.353096 10.9122 0.191183 10.505 0.190918H5.89195C5.48466 0.191183 5.09413 0.353096 4.80613 0.641095C4.51813 0.929093 4.35622 1.31963 4.35595 1.72692V2.08792H1.82695C1.50869 2.08792 1.20347 2.21435 0.978426 2.43939C0.753382 2.66443 0.626954 2.96966 0.626954 3.28792V3.85792C0.626602 4.15495 0.736427 4.44157 0.935185 4.66231C1.13394 4.88305 1.40751 5.02222 1.70295 5.05292L2.93995 15.9089C2.99667 16.4091 3.23543 16.8709 3.61071 17.2063C3.986 17.5418 4.47159 17.7274 4.97495 17.7279H11.418C11.9218 17.7282 12.4082 17.5429 12.7841 17.2073C13.16 16.8718 13.3992 16.4096 13.456 15.9089L14.695 5.05292C14.9911 5.02315 15.2657 4.88438 15.4652 4.66354C15.6648 4.44271 15.7752 4.15558 15.775 3.85792V3.28792C15.775 3.13033 15.7439 2.97429 15.6836 2.8287C15.6233 2.68311 15.5349 2.55082 15.4235 2.43939C15.3121 2.32796 15.1798 2.23957 15.0342 2.17926C14.8886 2.11896 14.7325 2.08792 14.575 2.08792H14.569ZM5.13595 1.72692C5.13622 1.5265 5.21595 1.33436 5.35767 1.19264C5.49939 1.05092 5.69153 0.971183 5.89195 0.970918H10.505C10.7054 0.971183 10.8975 1.05092 11.0392 1.19264C11.181 1.33436 11.2607 1.5265 11.261 1.72692V2.08792H5.13595V1.72692ZM12.683 15.8219C12.6478 16.1322 12.4996 16.4186 12.2666 16.6265C12.0336 16.8344 11.7322 16.9492 11.42 16.9489H4.97495C4.6627 16.9492 4.3613 16.8344 4.12832 16.6265C3.89534 16.4186 3.74711 16.1322 3.71195 15.8219L2.48795 5.05992H13.91L12.683 15.8209V15.8219ZM14.991 3.85792C14.991 3.96984 14.9465 4.07718 14.8674 4.15632C14.7882 4.23546 14.6809 4.27992 14.569 4.27992H1.82695C1.71503 4.27992 1.6077 4.23546 1.52855 4.15632C1.44941 4.07718 1.40495 3.96984 1.40495 3.85792V3.28792C1.40495 3.176 1.44941 3.06866 1.52855 2.98952C1.6077 2.91038 1.71503 2.86592 1.82695 2.86592H14.569C14.6809 2.86592 14.7882 2.91038 14.8674 2.98952C14.9465 3.06866 14.991 3.176 14.991 3.28792V3.85792Z" fill="currentColor"/>
<path d="M8.19859 14.8389C8.30203 14.8389 8.40123 14.7978 8.47437 14.7247C8.5475 14.6516 8.58859 14.5524 8.58859 14.4489V7.55992C8.58859 7.45649 8.5475 7.35729 8.47437 7.28415C8.40123 7.21101 8.30203 7.16992 8.19859 7.16992C8.09516 7.16992 7.99596 7.21101 7.92282 7.28415C7.84968 7.35729 7.80859 7.45649 7.80859 7.55992V14.4519C7.80939 14.5548 7.85082 14.6533 7.92388 14.7258C7.99693 14.7982 8.09568 14.8389 8.19859 14.8389Z" fill="currentColor"/>
<path d="M10.5276 14.8199H10.5656C10.6625 14.8198 10.7558 14.7838 10.8275 14.7187C10.8992 14.6537 10.9442 14.5642 10.9536 14.4679L11.6216 7.61187C11.6281 7.56017 11.6242 7.50769 11.61 7.45754C11.5959 7.40739 11.5719 7.36058 11.5393 7.31987C11.5068 7.27917 11.4664 7.24539 11.4206 7.22054C11.3748 7.19569 11.3245 7.18028 11.2727 7.1752C11.2208 7.17012 11.1685 7.17548 11.1187 7.19097C11.069 7.20647 11.0228 7.23177 10.983 7.26539C10.9432 7.29901 10.9105 7.34027 10.8869 7.38673C10.8633 7.43318 10.8493 7.4839 10.8456 7.53587L10.1776 14.3919C10.1676 14.4948 10.1988 14.5974 10.2644 14.6773C10.3301 14.7572 10.4247 14.8078 10.5276 14.8179V14.8199Z" fill="currentColor"/>
<path d="M5.82956 14.8218H5.86756C5.97045 14.8117 6.06511 14.7612 6.13074 14.6813C6.19637 14.6014 6.2276 14.4987 6.21756 14.3958L5.54856 7.53783C5.54489 7.48585 5.53084 7.43514 5.50725 7.38868C5.48365 7.34222 5.45099 7.30097 5.41118 7.26734C5.37137 7.23372 5.32523 7.20842 5.27548 7.19293C5.22573 7.17744 5.17337 7.17207 5.12152 7.17715C5.06966 7.18223 5.01934 7.19765 4.97354 7.2225C4.92774 7.24735 4.88739 7.28112 4.85486 7.32183C4.82233 7.36253 4.79829 7.40935 4.78416 7.4595C4.77002 7.50965 4.76608 7.56212 4.77256 7.61383L5.44056 14.4698C5.45 14.5662 5.49494 14.6556 5.56666 14.7207C5.63838 14.7857 5.73273 14.8218 5.82956 14.8218Z" fill="currentColor"/>
</svg>
