<svg width="22" height="18" viewBox="0 0 22 18" fill="none" xmlns="http://www.w3.org/2000/svg">
<path d="M13.1801 12.3662H8.50815C8.42423 12.3662 8.34114 12.3827 8.26361 12.4149C8.18608 12.447 8.11564 12.494 8.0563 12.5534C7.99697 12.6127 7.9499 12.6832 7.91779 12.7607C7.88567 12.8382 7.86914 12.9213 7.86914 13.0052V14.4382C7.86914 14.5221 7.88567 14.6052 7.91779 14.6827C7.9499 14.7603 7.99697 14.8307 8.0563 14.89C8.11564 14.9494 8.18608 14.9965 8.26361 15.0286C8.34114 15.0607 8.42423 15.0772 8.50815 15.0772H13.1801C13.3496 15.0772 13.5122 15.0099 13.632 14.89C13.7518 14.7702 13.8191 14.6077 13.8191 14.4382V13.0052C13.8191 12.8357 13.7518 12.6732 13.632 12.5534C13.5122 12.4335 13.3496 12.3662 13.1801 12.3662ZM12.9981 14.2552H8.69115V13.1872H12.9981V14.2552Z" fill="#131313"/>
<path d="M21.228 8.81817H21.235L18.152 2.72817C18.0315 2.48684 17.8459 2.28403 17.6161 2.14266C17.3864 2.00129 17.1217 1.92699 16.852 1.92817H16.267V1.36217C16.267 1.25317 16.2237 1.14863 16.1466 1.07155C16.0695 0.994475 15.965 0.951172 15.856 0.951172H5.82397C5.71496 0.951172 5.61042 0.994475 5.53335 1.07155C5.45627 1.14863 5.41297 1.25317 5.41297 1.36217V1.92817H4.82897C4.55923 1.92699 4.29453 2.00129 4.06481 2.14266C3.83508 2.28403 3.64947 2.48684 3.52897 2.72817L0.451967 8.81417H0.458967C0.32246 9.03935 0.250825 9.29786 0.251967 9.56118V15.9912C0.252231 16.3725 0.40382 16.7381 0.67344 17.0077C0.943059 17.2773 1.30867 17.4289 1.68997 17.4292H19.998C20.3793 17.4289 20.7449 17.2773 21.0145 17.0077C21.2841 16.7381 21.4357 16.3725 21.436 15.9912V9.56118C21.4361 9.29912 21.3641 9.04208 21.228 8.81817ZM16.274 2.84317H16.859C16.9594 2.8432 17.0579 2.8713 17.1432 2.9243C17.2286 2.97731 17.2974 3.05312 17.342 3.14317L19.863 8.12717H18.152V6.59017C18.152 6.48117 18.1087 6.37663 18.0316 6.29955C17.9545 6.22248 17.85 6.17917 17.741 6.17917H17.233V3.97917C17.233 3.87017 17.1897 3.76563 17.1126 3.68855C17.0355 3.61148 16.931 3.56817 16.822 3.56817H16.276L16.274 2.84317ZM17.328 7.00117V8.12417H15.161C14.9787 8.12438 14.8004 8.17712 14.6473 8.27609C14.4942 8.37505 14.3729 8.51604 14.298 8.68217L13.707 9.99417C13.7041 10.0002 13.6996 10.0053 13.6939 10.0089C13.6882 10.0124 13.6817 10.0142 13.675 10.0142H8.01297C8.00628 10.0142 7.99971 10.0124 7.99404 10.0089C7.98837 10.0053 7.98383 10.0002 7.98097 9.99417L7.38997 8.68217C7.31488 8.51612 7.19357 8.3752 7.04053 8.27625C6.8875 8.1773 6.70921 8.1245 6.52697 8.12417H4.35997V7.00117H17.328ZM6.23497 1.77517H15.452V3.56717H6.23497V1.77517ZM16.409 4.38817V6.18017H5.27897V4.38817H16.409ZM4.34597 3.14017C4.39052 3.05012 4.45935 2.97432 4.54469 2.92131C4.63004 2.8683 4.7285 2.84019 4.82897 2.84017H5.41397V3.56417H4.86797C4.75896 3.56417 4.65442 3.60747 4.57735 3.68455C4.50027 3.76163 4.45697 3.86617 4.45697 3.97517V6.17517H3.95197C3.84296 6.17517 3.73842 6.21847 3.66135 6.29555C3.58427 6.37263 3.54097 6.47717 3.54097 6.58617V8.12017H1.82497L4.34597 3.14017ZM19.998 16.5172H1.68997C1.55064 16.5172 1.417 16.4619 1.31838 16.3635C1.21977 16.265 1.16423 16.1315 1.16397 15.9922V9.56218C1.16397 9.42267 1.21938 9.28888 1.31803 9.19024C1.41667 9.09159 1.55046 9.03617 1.68997 9.03617H6.52597C6.53265 9.0361 6.53922 9.03795 6.54489 9.04149C6.55056 9.04504 6.5551 9.05013 6.55797 9.05617L7.15197 10.3682C7.22695 10.5343 7.34824 10.6753 7.50129 10.7743C7.65435 10.8732 7.8327 10.926 8.01497 10.9262H13.677C13.8592 10.9258 14.0375 10.873 14.1905 10.7741C14.3436 10.6751 14.4649 10.5342 14.54 10.3682L15.13 9.05217C15.1328 9.04613 15.1374 9.04104 15.143 9.03749C15.1487 9.03395 15.1553 9.03211 15.162 9.03218H19.999C20.1383 9.03218 20.2719 9.08745 20.3706 9.18588C20.4692 9.28431 20.5247 9.41784 20.525 9.55717V15.9872C20.5255 16.0567 20.5122 16.1256 20.486 16.1899C20.4597 16.2543 20.421 16.3128 20.372 16.3621C20.323 16.4113 20.2647 16.4504 20.2005 16.477C20.1363 16.5037 20.0675 16.5173 19.998 16.5172Z" fill="#131313"/>
</svg>
