<svg width="21" height="19" viewBox="0 0 21 19" fill="none" xmlns="http://www.w3.org/2000/svg">
<path d="M19.7238 18.8161C19.6443 18.8161 19.5679 18.7844 19.5117 18.7282C19.4554 18.6719 19.4238 18.5956 19.4238 18.5161V2.98506C19.4238 2.90549 19.4554 2.82919 19.5117 2.77293C19.5679 2.71667 19.6443 2.68506 19.7238 2.68506C19.8034 2.68506 19.8797 2.71667 19.936 2.77293C19.9922 2.82919 20.0238 2.90549 20.0238 2.98506V18.5181C20.0233 18.5973 19.9914 18.6731 19.9352 18.7289C19.879 18.7847 19.803 18.8161 19.7238 18.8161Z" fill="black"/>
<path d="M7.47968 11.643C7.40011 11.643 7.32381 11.6114 7.26755 11.5552C7.21129 11.4989 7.17969 11.4226 7.17969 11.343V1.19404C7.17969 1.15465 7.18744 1.11564 7.20251 1.07924C7.21759 1.04284 7.23969 1.00977 7.26755 0.981911C7.29541 0.954053 7.32847 0.931956 7.36487 0.916879C7.40127 0.901803 7.44028 0.894043 7.47968 0.894043C7.51907 0.894043 7.55808 0.901803 7.59448 0.916879C7.63088 0.931956 7.66396 0.954053 7.69182 0.981911C7.71968 1.00977 7.74177 1.04284 7.75685 1.07924C7.77193 1.11564 7.77968 1.15465 7.77968 1.19404V11.345C7.77915 11.4243 7.74732 11.5001 7.69112 11.5559C7.63491 11.6117 7.55889 11.643 7.47968 11.643Z" fill="black"/>
<path d="M7.4795 7.76212H5.9875C5.90793 7.76212 5.83163 7.7305 5.77537 7.67424C5.71911 7.61798 5.6875 7.54168 5.6875 7.46211C5.6875 7.38255 5.71911 7.30625 5.77537 7.24998C5.83163 7.19372 5.90793 7.16211 5.9875 7.16211H7.4795C7.55906 7.16211 7.63537 7.19372 7.69163 7.24998C7.74789 7.30625 7.7795 7.38255 7.7795 7.46211C7.7795 7.54168 7.74789 7.61798 7.69163 7.67424C7.63537 7.7305 7.55906 7.76212 7.4795 7.76212Z" fill="black"/>
<path d="M3.30104 10.1508C3.24086 10.1502 3.18224 10.1316 3.13281 10.0973C3.08337 10.0629 3.0454 10.0145 3.02383 9.95834C3.00226 9.90215 2.99809 9.84078 3.01186 9.78219C3.02563 9.7236 3.0567 9.67052 3.10104 9.62982L5.78804 7.24081C5.84788 7.1928 5.92383 7.16954 6.00029 7.17581C6.07675 7.18207 6.14791 7.21739 6.19913 7.2745C6.25035 7.33161 6.27774 7.40617 6.27568 7.48286C6.27362 7.55955 6.24226 7.63253 6.18805 7.68681L3.50104 10.0758C3.44584 10.1245 3.37465 10.1512 3.30104 10.1508Z" fill="black"/>
<path d="M7.18195 15.226H3.30195C3.22239 15.226 3.14608 15.1944 3.08982 15.1381C3.03356 15.0819 3.00195 15.0056 3.00195 14.926C3.00195 14.8464 3.03356 14.7701 3.08982 14.7139C3.14608 14.6576 3.22239 14.626 3.30195 14.626H7.18195C7.26152 14.626 7.33782 14.6576 7.39408 14.7139C7.45035 14.7701 7.48195 14.8464 7.48195 14.926C7.48195 15.0056 7.45035 15.0819 7.39408 15.1381C7.33782 15.1944 7.26152 15.226 7.18195 15.226Z" fill="black"/>
<path d="M7.47837 11.6431C7.41758 11.6424 7.35843 11.6233 7.30875 11.5883C7.25907 11.5532 7.2212 11.504 7.20017 11.4469C7.17913 11.3899 7.17593 11.3278 7.19097 11.2689C7.206 11.21 7.23857 11.1571 7.28437 11.1171L9.45236 9.2691C9.4813 9.23852 9.51636 9.21437 9.55524 9.19822C9.59412 9.18208 9.63597 9.1743 9.67806 9.17539C9.72015 9.17649 9.76154 9.18641 9.79953 9.20455C9.83753 9.22269 9.87128 9.24862 9.89859 9.28066C9.9259 9.31271 9.94616 9.35014 9.95806 9.39053C9.96995 9.43091 9.97321 9.47335 9.96762 9.51509C9.96204 9.55682 9.94773 9.59691 9.92563 9.63275C9.90353 9.66858 9.87415 9.69936 9.83937 9.72309L7.67137 11.5711C7.61783 11.6176 7.54928 11.6432 7.47837 11.6431Z" fill="black"/>
<path d="M7.18057 15.221C7.12197 15.2202 7.06489 15.2022 7.01639 15.1693C6.96788 15.1364 6.93008 15.09 6.90764 15.0359C6.88519 14.9817 6.8791 14.9222 6.8901 14.8646C6.90111 14.8071 6.92874 14.754 6.96957 14.712L10.8516 10.812C10.8782 10.7799 10.9113 10.7537 10.9486 10.7351C10.9859 10.7165 11.0267 10.7059 11.0683 10.7039C11.11 10.702 11.1516 10.7087 11.1905 10.7238C11.2294 10.7388 11.2647 10.7618 11.2943 10.7912C11.3238 10.8207 11.3468 10.856 11.362 10.8948C11.3771 10.9337 11.3839 10.9753 11.3821 11.0169C11.3802 11.0586 11.3697 11.0994 11.3512 11.1368C11.3327 11.1741 11.3066 11.2073 11.2746 11.234L7.39258 15.134C7.33621 15.1899 7.25997 15.2212 7.18057 15.221Z" fill="black"/>
<path d="M3.3 15.5251C3.22043 15.5251 3.14413 15.4935 3.08787 15.4372C3.03161 15.381 3 15.3047 3 15.2251V9.2541C3 9.17454 3.03161 9.09824 3.08787 9.04198C3.14413 8.98572 3.22043 8.9541 3.3 8.9541C3.37956 8.9541 3.45587 8.98572 3.51213 9.04198C3.56839 9.09824 3.6 9.17454 3.6 9.2541V15.2251C3.6 15.3047 3.56839 15.381 3.51213 15.4372C3.45587 15.4935 3.37956 15.5251 3.3 15.5251Z" fill="black"/>
<path d="M3.29961 9.55411H2.39961C2.32004 9.55411 2.24374 9.52249 2.18748 9.46623C2.13122 9.40997 2.09961 9.33367 2.09961 9.2541C2.09961 9.17454 2.13122 9.09824 2.18748 9.04198C2.24374 8.98572 2.32004 8.9541 2.39961 8.9541H3.29961C3.37918 8.9541 3.45548 8.98572 3.51174 9.04198C3.568 9.09824 3.59961 9.17454 3.59961 9.2541C3.59961 9.33367 3.568 9.40997 3.51174 9.46623C3.45548 9.52249 3.37918 9.55411 3.29961 9.55411Z" fill="black"/>
<path d="M3.29961 15.5248H2.39961C2.32004 15.5248 2.24374 15.4932 2.18748 15.437C2.13122 15.3807 2.09961 15.3044 2.09961 15.2248C2.09961 15.1453 2.13122 15.069 2.18748 15.0127C2.24374 14.9564 2.32004 14.9248 2.39961 14.9248H3.29961C3.37918 14.9248 3.45548 14.9564 3.51174 15.0127C3.568 15.069 3.59961 15.1453 3.59961 15.2248C3.59961 15.3044 3.568 15.3807 3.51174 15.437C3.45548 15.4932 3.37918 15.5248 3.29961 15.5248Z" fill="black"/>
<path d="M2.40511 16.4211H1.21211C1.13254 16.4211 1.05624 16.3895 0.999977 16.3332C0.943716 16.277 0.912109 16.2007 0.912109 16.1211C0.912109 16.0415 0.943716 15.9652 0.999977 15.909C1.05624 15.8527 1.13254 15.8211 1.21211 15.8211H2.11211V8.6581H1.21211C1.13254 8.6581 1.05624 8.6265 0.999977 8.57024C0.943716 8.51398 0.912109 8.43767 0.912109 8.35811C0.912109 8.27854 0.943716 8.20223 0.999977 8.14597C1.05624 8.0897 1.13254 8.05811 1.21211 8.05811H2.40511C2.48467 8.05811 2.56098 8.0897 2.61724 8.14597C2.6735 8.20223 2.70511 8.27854 2.70511 8.35811V16.1211C2.70511 16.2007 2.6735 16.277 2.61724 16.3332C2.56098 16.3895 2.48467 16.4211 2.40511 16.4211Z" fill="black"/>
<path d="M11.0607 11.3329C11.0022 11.3322 10.9451 11.3145 10.8965 11.2818C10.8479 11.2491 10.8099 11.2029 10.7873 11.1489C10.7646 11.0949 10.7583 11.0354 10.769 10.9778C10.7798 10.9202 10.8071 10.8671 10.8477 10.8249C10.9848 10.6858 11.0614 10.4981 11.0607 10.3029C11.0605 10.1051 10.9818 9.91549 10.842 9.77565C10.7021 9.6358 10.5125 9.55711 10.3148 9.55685C10.1404 9.5557 9.97127 9.61669 9.83775 9.72886C9.77611 9.77075 9.7011 9.78818 9.6273 9.77778C9.55351 9.76739 9.48622 9.72991 9.43855 9.67263C9.39088 9.61535 9.36623 9.54238 9.36941 9.46792C9.37259 9.39347 9.40337 9.32287 9.45575 9.26986C9.72011 9.04621 10.0606 8.9333 10.4062 8.95472C10.7519 8.97615 11.0758 9.13023 11.3106 9.38482C11.5453 9.63941 11.6726 9.97483 11.6659 10.321C11.6592 10.6673 11.5191 10.9975 11.2747 11.2429C11.2468 11.2713 11.2135 11.2939 11.1768 11.3094C11.1401 11.3249 11.1006 11.3328 11.0607 11.3329Z" fill="black"/>
<path d="M19.7213 3.28293C19.6422 3.28286 19.5664 3.2516 19.5103 3.19593L17.7202 1.40593C17.6876 1.37945 17.6609 1.34642 17.6419 1.30897C17.6229 1.27152 17.6119 1.23049 17.6098 1.18854C17.6076 1.14659 17.6143 1.10465 17.6293 1.06544C17.6444 1.02623 17.6675 0.990618 17.6972 0.960915C17.7269 0.931211 17.7625 0.908077 17.8018 0.893009C17.841 0.877942 17.8829 0.871278 17.9249 0.873447C17.9668 0.875617 18.0078 0.886573 18.0453 0.905606C18.0827 0.924638 18.1158 0.951323 18.1422 0.983933L19.9323 2.77393C19.9734 2.81593 20.0013 2.86909 20.0125 2.92682C20.0237 2.98455 20.0177 3.0443 19.9952 3.09864C19.9728 3.15298 19.9348 3.19951 19.8861 3.23246C19.8374 3.2654 19.7801 3.2823 19.7213 3.28293Z" fill="black"/>
<path d="M17.9327 1.49404H7.47968C7.40011 1.49404 7.32381 1.46244 7.26755 1.40618C7.21129 1.34991 7.17969 1.27361 7.17969 1.19404C7.17969 1.11448 7.21129 1.03817 7.26755 0.981911C7.32381 0.92565 7.40011 0.894043 7.47968 0.894043H17.9327C17.9721 0.894043 18.0111 0.901803 18.0475 0.916879C18.0839 0.931956 18.1169 0.954053 18.1448 0.981911C18.1727 1.00977 18.1948 1.04284 18.2098 1.07924C18.2249 1.11564 18.2327 1.15465 18.2327 1.19404C18.2327 1.23344 18.2249 1.27245 18.2098 1.30885C18.1948 1.34525 18.1727 1.37832 18.1448 1.40618C18.1169 1.43403 18.0839 1.45613 18.0475 1.47121C18.0111 1.48628 17.9721 1.49404 17.9327 1.49404Z" fill="black"/>
<path d="M17.9328 3.29002C17.8533 3.29002 17.777 3.25841 17.7207 3.20215C17.6644 3.14589 17.6328 3.06958 17.6328 2.99002V1.19502C17.6328 1.11545 17.6644 1.03915 17.7207 0.982888C17.777 0.926627 17.8533 0.89502 17.9328 0.89502C18.0124 0.89502 18.0887 0.926627 18.145 0.982888C18.2012 1.03915 18.2328 1.11545 18.2328 1.19502V2.99502C18.2328 3.07458 18.2012 3.15089 18.145 3.20715C18.0887 3.26341 18.0124 3.29502 17.9328 3.29502V3.29002Z" fill="black"/>
<path d="M19.7228 3.28994H17.9328C17.8532 3.28994 17.7769 3.25834 17.7207 3.20208C17.6644 3.14582 17.6328 3.06951 17.6328 2.98994C17.6328 2.91038 17.6644 2.83407 17.7207 2.77781C17.7769 2.72155 17.8532 2.68994 17.9328 2.68994H19.7228C19.8024 2.68994 19.8787 2.72155 19.9349 2.77781C19.9912 2.83407 20.0228 2.91038 20.0228 2.98994C20.0228 3.06951 19.9912 3.14582 19.9349 3.20208C19.8787 3.25834 19.8024 3.28994 19.7228 3.28994Z" fill="black"/>
<path d="M19.7197 18.8158H7.47968C7.40011 18.8158 7.32381 18.7842 7.26755 18.7279C7.21129 18.6717 7.17969 18.5954 7.17969 18.5158C7.17969 18.4362 7.21129 18.3599 7.26755 18.3037C7.32381 18.2474 7.40011 18.2158 7.47968 18.2158H19.7197C19.7992 18.2158 19.8755 18.2474 19.9318 18.3037C19.9881 18.3599 20.0197 18.4362 20.0197 18.5158C20.0197 18.5954 19.9881 18.6717 19.9318 18.7279C19.8755 18.7842 19.7992 18.8158 19.7197 18.8158Z" fill="black"/>
<path d="M7.47968 18.8169C7.40011 18.8169 7.32381 18.7853 7.26755 18.729C7.21129 18.6727 7.17969 18.5964 7.17969 18.5169V14.6169C7.17969 14.5373 7.21129 14.461 7.26755 14.4048C7.32381 14.3485 7.40011 14.3169 7.47968 14.3169C7.55924 14.3169 7.63556 14.3485 7.69182 14.4048C7.74808 14.461 7.77968 14.5373 7.77968 14.6169V18.5169C7.77968 18.5964 7.74808 18.6727 7.69182 18.729C7.63556 18.7853 7.55924 18.8169 7.47968 18.8169Z" fill="black"/>
<path d="M11.0682 5.67774H9.87422C9.83483 5.67774 9.79581 5.66998 9.75941 5.65491C9.72302 5.63983 9.68994 5.61773 9.66208 5.58987C9.63422 5.56202 9.61212 5.52894 9.59705 5.49255C9.58197 5.45615 9.57422 5.41714 9.57422 5.37775V4.18575C9.57422 4.14635 9.58197 4.10734 9.59705 4.07094C9.61212 4.03454 9.63422 4.00147 9.66208 3.97361C9.68994 3.94575 9.72302 3.92365 9.75941 3.90858C9.79581 3.8935 9.83483 3.88574 9.87422 3.88574H11.0682C11.1478 3.88574 11.2241 3.91735 11.2803 3.97361C11.3366 4.02987 11.3682 4.10618 11.3682 4.18575V5.37975C11.3677 5.45896 11.3359 5.53475 11.2796 5.59058C11.2234 5.64641 11.1474 5.67774 11.0682 5.67774ZM10.1682 5.07774H10.7682V4.47775H10.1682V5.07774Z" fill="black"/>
<path d="M17.0399 5.08096H12.2629C12.2235 5.08096 12.1845 5.0732 12.1481 5.05812C12.1117 5.04304 12.0786 5.02095 12.0508 4.99309C12.0229 4.96523 12.0008 4.93216 11.9857 4.89576C11.9706 4.85936 11.9629 4.82036 11.9629 4.78096C11.9629 4.74156 11.9706 4.70255 11.9857 4.66615C12.0008 4.62976 12.0229 4.59668 12.0508 4.56882C12.0786 4.54097 12.1117 4.51887 12.1481 4.50379C12.1845 4.48872 12.2235 4.48096 12.2629 4.48096H17.0399C17.0793 4.48096 17.1183 4.48872 17.1547 4.50379C17.1911 4.51887 17.2242 4.54097 17.252 4.56882C17.2799 4.59668 17.302 4.62976 17.317 4.66615C17.3321 4.70255 17.3399 4.74156 17.3399 4.78096C17.3399 4.82036 17.3321 4.85936 17.317 4.89576C17.302 4.93216 17.2799 4.96523 17.252 4.99309C17.2242 5.02095 17.1911 5.04304 17.1547 5.05812C17.1183 5.0732 17.0793 5.08096 17.0399 5.08096Z" fill="black"/>
<path d="M11.0682 8.36481H9.87422C9.83483 8.36481 9.79581 8.35704 9.75941 8.34196C9.72302 8.32689 9.68994 8.30479 9.66208 8.27693C9.63422 8.24907 9.61212 8.21601 9.59705 8.17961C9.58197 8.14321 9.57422 8.1042 9.57422 8.0648V6.8708C9.57422 6.83141 9.58197 6.79239 9.59705 6.756C9.61212 6.7196 9.63422 6.68653 9.66208 6.65868C9.68994 6.63082 9.72302 6.60872 9.75941 6.59364C9.79581 6.57857 9.83483 6.5708 9.87422 6.5708H11.0682C11.1478 6.5708 11.2241 6.60242 11.2803 6.65868C11.3366 6.71494 11.3682 6.79124 11.3682 6.8708V8.0648C11.3682 8.14437 11.3366 8.22067 11.2803 8.27693C11.2241 8.33319 11.1478 8.36481 11.0682 8.36481ZM10.1682 7.7648H10.7682V7.16479H10.1682V7.7648Z" fill="black"/>
<path d="M17.0399 7.76797H12.2629C12.1833 7.76797 12.107 7.73636 12.0508 7.6801C11.9945 7.62384 11.9629 7.54754 11.9629 7.46797C11.9629 7.38841 11.9945 7.31211 12.0508 7.25584C12.107 7.19958 12.1833 7.16797 12.2629 7.16797H17.0399C17.1195 7.16797 17.1958 7.19958 17.252 7.25584C17.3083 7.31211 17.3399 7.38841 17.3399 7.46797C17.3399 7.54754 17.3083 7.62384 17.252 7.6801C17.1958 7.73636 17.1195 7.76797 17.0399 7.76797Z" fill="black"/>
<path d="M17.0399 10.455H12.2629C12.1833 10.455 12.107 10.4234 12.0508 10.3671C11.9945 10.3109 11.9629 10.2345 11.9629 10.155C11.9629 10.0754 11.9945 9.99912 12.0508 9.94286C12.107 9.88659 12.1833 9.85498 12.2629 9.85498H17.0399C17.1195 9.85498 17.1958 9.88659 17.252 9.94286C17.3083 9.99912 17.3399 10.0754 17.3399 10.155C17.3399 10.2345 17.3083 10.3109 17.252 10.3671C17.1958 10.4234 17.1195 10.455 17.0399 10.455Z" fill="black"/>
<path d="M11.0682 13.7388H9.87422C9.83483 13.7388 9.79581 13.7311 9.75941 13.716C9.72302 13.7009 9.68994 13.6788 9.66208 13.651C9.63422 13.6231 9.61212 13.59 9.59705 13.5536C9.58197 13.5172 9.57422 13.4782 9.57422 13.4388V12.2448C9.57422 12.2054 9.58197 12.1664 9.59705 12.13C9.61212 12.0936 9.63422 12.0605 9.66208 12.0327C9.68994 12.0048 9.72302 11.9827 9.75941 11.9677C9.79581 11.9526 9.83483 11.9448 9.87422 11.9448H11.0682C11.1478 11.9448 11.2241 11.9764 11.2803 12.0327C11.3366 12.0889 11.3682 12.1652 11.3682 12.2448V13.4388C11.3682 13.5184 11.3366 13.5947 11.2803 13.651C11.2241 13.7072 11.1478 13.7388 11.0682 13.7388ZM10.1682 13.1388H10.7682V12.5388H10.1682V13.1388Z" fill="black"/>
<path d="M17.0399 13.142H12.2629C12.1833 13.142 12.107 13.1104 12.0508 13.0541C11.9945 12.9979 11.9629 12.9215 11.9629 12.842C11.9629 12.7624 11.9945 12.6861 12.0508 12.6299C12.107 12.5736 12.1833 12.542 12.2629 12.542H17.0399C17.1195 12.542 17.1958 12.5736 17.252 12.6299C17.3083 12.6861 17.3399 12.7624 17.3399 12.842C17.3399 12.9215 17.3083 12.9979 17.252 13.0541C17.1958 13.1104 17.1195 13.142 17.0399 13.142Z" fill="black"/>
<path d="M13.7454 15.831H9.86836C9.7888 15.831 9.71248 15.7993 9.65622 15.7431C9.59996 15.6868 9.56836 15.6105 9.56836 15.5309C9.56836 15.4514 9.59996 15.3751 9.65622 15.3188C9.71248 15.2626 9.7888 15.231 9.86836 15.231H13.7454C13.8249 15.231 13.9012 15.2626 13.9575 15.3188C14.0138 15.3751 14.0454 15.4514 14.0454 15.5309C14.0454 15.6105 14.0138 15.6868 13.9575 15.7431C13.9012 15.7993 13.8249 15.831 13.7454 15.831Z" fill="black"/>
<path d="M12.2572 16.7269H9.87421C9.79464 16.7269 9.71834 16.6953 9.66208 16.6391C9.60582 16.5828 9.57422 16.5065 9.57422 16.4269C9.57422 16.3474 9.60582 16.2711 9.66208 16.2148C9.71834 16.1586 9.79464 16.127 9.87421 16.127H12.2572C12.3368 16.127 12.4131 16.1586 12.4693 16.2148C12.5256 16.2711 12.5572 16.3474 12.5572 16.4269C12.5572 16.5065 12.5256 16.5828 12.4693 16.6391C12.4131 16.6953 12.3368 16.7269 12.2572 16.7269Z" fill="black"/>
<path d="M16.6956 17.0188C16.6472 17.0189 16.5995 17.0072 16.5566 16.9848L16.1416 16.7668L15.7266 16.9848C15.6772 17.0101 15.6218 17.0213 15.5665 17.017C15.5112 17.0127 15.4581 16.9931 15.4132 16.9604C15.3684 16.9278 15.3334 16.8834 15.3123 16.8321C15.2912 16.7808 15.2847 16.7246 15.2936 16.6698L15.3726 16.2078L15.0376 15.8808C14.9983 15.8417 14.9706 15.7925 14.9576 15.7386C14.9446 15.6848 14.9468 15.6284 14.9638 15.5757C14.9809 15.5229 15.0123 15.476 15.0544 15.44C15.0966 15.404 15.1479 15.3804 15.2026 15.3718L15.6666 15.3038L15.8746 14.8838C15.9021 14.8374 15.9413 14.7989 15.9882 14.7722C16.0351 14.7455 16.0881 14.7314 16.1421 14.7314C16.1961 14.7314 16.2491 14.7455 16.296 14.7722C16.3429 14.7989 16.3821 14.8374 16.4096 14.8838L16.6166 15.3038L17.0806 15.3718C17.1353 15.3804 17.1866 15.404 17.2288 15.44C17.2709 15.476 17.3023 15.5229 17.3194 15.5757C17.3365 15.6284 17.3386 15.6848 17.3256 15.7386C17.3126 15.7925 17.2849 15.8417 17.2456 15.8808L16.9106 16.2078L16.9796 16.6078C16.9929 16.6423 16.9996 16.6789 16.9996 16.7158C16.9996 16.7954 16.968 16.8717 16.9117 16.9279C16.8555 16.9842 16.7792 17.0158 16.6996 17.0158L16.6956 17.0188ZM16.1416 16.1308C16.19 16.1308 16.2377 16.1424 16.2806 16.1648L16.2996 16.1738V16.1538C16.2916 16.1061 16.2952 16.0572 16.3102 16.0113C16.3252 15.9653 16.351 15.9237 16.3856 15.8898L16.4006 15.8758H16.3806C16.3328 15.8688 16.2873 15.8503 16.2481 15.8219C16.2089 15.7935 16.1772 15.7561 16.1556 15.7128L16.1466 15.6938L16.1376 15.7128C16.116 15.7561 16.0843 15.7935 16.0451 15.8219C16.0059 15.8503 15.9605 15.8688 15.9126 15.8758H15.8926L15.9076 15.8898C15.9421 15.9237 15.968 15.9653 15.983 16.0113C15.9979 16.0572 16.0016 16.1061 15.9936 16.1538V16.1738L16.0116 16.1648C16.0524 16.1451 16.0973 16.1352 16.1426 16.1358L16.1416 16.1308Z" fill="black"/>
</svg>
