<svg width="18" height="13" viewBox="0 0 18 13" fill="none" xmlns="http://www.w3.org/2000/svg">
<path d="M16.5027 0.71582H2.42969C2.03186 0.71582 1.65033 0.873854 1.36903 1.15516C1.08772 1.43646 0.929688 1.818 0.929688 2.21582L0.929688 11.2158C0.929688 11.6136 1.08772 11.9952 1.36903 12.2765C1.65033 12.5578 2.03186 12.7158 2.42969 12.7158H16.5027C16.9005 12.7158 17.282 12.5578 17.5633 12.2765C17.8447 11.9952 18.0027 11.6136 18.0027 11.2158V2.21582C18.0027 1.818 17.8447 1.43646 17.5633 1.15516C17.282 0.873854 16.9005 0.71582 16.5027 0.71582ZM16.2727 1.71582L9.85369 8.15482C9.74685 8.24958 9.60899 8.3019 9.46619 8.3019C9.32338 8.3019 9.18553 8.24958 9.07869 8.15482L2.66069 1.71582H16.2727ZM1.92969 11.0358V2.39982L6.22969 6.71582L1.92969 11.0358ZM2.66069 11.7158L6.93969 7.42682L8.36969 8.86182C8.66446 9.14467 9.05717 9.3026 9.46569 9.3026C9.87421 9.3026 10.2669 9.14467 10.5617 8.86182L11.9917 7.42682L16.2717 11.7158H2.66069ZM17.0027 11.0318L12.6987 6.71582L16.9987 2.39782L17.0027 11.0318Z" fill="#131313"/>
</svg>
