<svg width="18" height="18" viewBox="0 0 18 18" fill="none" xmlns="http://www.w3.org/2000/svg">
<path d="M17.3432 5.97487L9.20022 0.336873C9.09539 0.264098 8.97083 0.225098 8.84322 0.225098C8.71561 0.225098 8.59104 0.264098 8.48622 0.336873L0.343219 5.97487C0.260373 6.03239 0.19265 6.10907 0.145814 6.19839C0.0989781 6.28771 0.0744162 6.38702 0.0742188 6.48787V15.8879C0.0742188 16.3862 0.272184 16.8641 0.624565 17.2165C0.976946 17.5689 1.45488 17.7669 1.95322 17.7669H15.7332C16.2316 17.7669 16.7095 17.5689 17.0619 17.2165C17.4143 16.8641 17.6122 16.3862 17.6122 15.8879V6.48787C17.612 6.38702 17.5875 6.28771 17.5406 6.19839C17.4938 6.10907 17.4261 6.03239 17.3432 5.97487ZM8.84322 1.61487L16.3592 6.80087L8.84322 11.9869L1.32722 6.80087L8.84322 1.61487ZM15.7332 16.5149H1.95322C1.87101 16.5149 1.78961 16.4987 1.71366 16.4672C1.63771 16.4358 1.5687 16.3897 1.51057 16.3315C1.45244 16.2734 1.40633 16.2044 1.37487 16.1284C1.34341 16.0525 1.32722 15.9711 1.32722 15.8889V8.31087L8.48622 13.2659C8.59104 13.3386 8.71561 13.3776 8.84322 13.3776C8.97083 13.3776 9.09539 13.3386 9.20022 13.2659L16.3592 8.31087V15.8839C16.3592 16.0499 16.2933 16.2091 16.1759 16.3265C16.0585 16.4439 15.8992 16.5099 15.7332 16.5099V16.5149Z" fill="currentColor"/>
</svg>
