<svg width="21" height="24" viewBox="0 0 21 24" fill="none" xmlns="http://www.w3.org/2000/svg">
<path d="M20.351 17.5411L18.978 15.5661C18.7906 15.2977 18.6898 14.9784 18.689 14.6511V8.98213C18.689 6.8527 17.843 4.81049 16.3373 3.30476C14.8316 1.79904 12.7894 0.953125 10.66 0.953125C8.53053 0.953125 6.48832 1.79904 4.98259 3.30476C3.47686 4.81049 2.63095 6.8527 2.63095 8.98213V14.6531C2.63012 14.9804 2.52928 15.2997 2.34195 15.5681L0.967953 17.5411C0.760015 17.7715 0.623291 18.0572 0.574319 18.3637C0.525347 18.6702 0.566226 18.9843 0.69201 19.268C0.817794 19.5517 1.0231 19.7929 1.28308 19.9625C1.54306 20.132 1.84659 20.2225 2.15695 20.2231H6.72495C6.90993 21.13 7.40253 21.9451 8.11941 22.5305C8.83629 23.1159 9.73341 23.4357 10.659 23.4357C11.5845 23.4357 12.4816 23.1159 13.1985 22.5305C13.9154 21.9451 14.408 21.13 14.593 20.2231H19.162C19.4722 20.2223 19.7756 20.1316 20.0355 19.962C20.2953 19.7925 20.5004 19.5512 20.6261 19.2676C20.7518 18.9839 20.7926 18.6699 20.7435 18.3635C20.6945 18.0571 20.5578 17.7715 20.35 17.5411H20.351ZM10.66 21.8291C10.163 21.8276 9.67871 21.6725 9.27339 21.385C8.86808 21.0975 8.5616 20.6916 8.39595 20.2231H12.924C12.7583 20.6916 12.4518 21.0975 12.0465 21.385C11.6412 21.6725 11.1569 21.8276 10.66 21.8291ZM2.15995 18.6171C2.1975 18.5838 2.23106 18.5462 2.25995 18.5051L3.66495 16.4821C4.03835 15.9452 4.23896 15.3071 4.23995 14.6531V8.98213C4.23995 8.13864 4.40609 7.30342 4.72887 6.52415C5.05166 5.74487 5.52478 5.03681 6.12121 4.44038C6.71764 3.84395 7.4257 3.37083 8.20498 3.04805C8.98425 2.72526 9.81947 2.55912 10.663 2.55912C11.5064 2.55912 12.3417 2.72526 13.1209 3.04805C13.9002 3.37083 14.6083 3.84395 15.2047 4.44038C15.8011 5.03681 16.2742 5.74487 16.597 6.52415C16.9198 7.30342 17.086 8.13864 17.086 8.98213V14.6531C17.0874 15.3081 17.2891 15.947 17.664 16.4841L19.069 18.5071C19.0978 18.5482 19.1314 18.5858 19.169 18.6191L2.15995 18.6171Z" fill="#3D3D3D"/>
</svg>
