<svg width="21" height="23" viewBox="0 0 21 23" fill="none" xmlns="http://www.w3.org/2000/svg">
<path d="M18.668 2.48278H15.426V2.01978C15.4255 1.49773 15.2179 0.997217 14.8487 0.628073C14.4796 0.258928 13.9791 0.0513107 13.457 0.0507812H7.54002C7.01797 0.0513107 6.51745 0.258928 6.14831 0.628073C5.77916 0.997217 5.57154 1.49773 5.57102 2.01978V2.48278H2.33102C1.92274 2.48331 1.53135 2.64573 1.24266 2.93442C0.953964 3.22311 0.791545 3.61451 0.791016 4.02278V4.75278C0.791573 5.13323 0.932661 5.50005 1.18719 5.78282C1.44171 6.06558 1.79173 6.24435 2.17002 6.28478L3.75602 20.2038C3.82855 20.8459 4.13511 21.4388 4.61713 21.8691C5.09915 22.2995 5.72283 22.5372 6.36902 22.5368H14.63C15.2757 22.5364 15.8986 22.2984 16.38 21.8681C16.8614 21.4378 17.1675 20.8454 17.24 20.2038L18.826 6.28478C19.2044 6.24456 19.5545 6.06586 19.8091 5.78305C20.0637 5.50024 20.2047 5.13329 20.205 4.75278V4.02278C20.2045 3.61451 20.0421 3.22311 19.7534 2.93442C19.4647 2.64573 19.0733 2.48331 18.665 2.48278H18.668ZM6.56802 2.01978C6.56828 1.76287 6.67046 1.51655 6.85212 1.33489C7.03379 1.15322 7.2801 1.05105 7.53701 1.05078H13.452C13.7089 1.05105 13.9552 1.15322 14.1369 1.33489C14.3186 1.51655 14.4208 1.76287 14.421 2.01978V2.48278H6.57302L6.56802 2.01978ZM16.25 20.0908C16.205 20.4887 16.0151 20.856 15.7165 21.1227C15.4178 21.3895 15.0314 21.5369 14.631 21.5368H6.37002C5.96976 21.5369 5.58349 21.3896 5.28487 21.1231C4.98626 20.8566 4.79623 20.4895 4.75102 20.0918L3.17902 6.29178H17.823L16.251 20.0918L16.25 20.0908ZM19.209 4.75278C19.2087 4.89618 19.1517 5.03363 19.0503 5.13503C18.9489 5.23643 18.8114 5.29352 18.668 5.29378H2.33102C2.18761 5.29352 2.05016 5.23643 1.94876 5.13503C1.84736 5.03363 1.79028 4.89618 1.79002 4.75278V4.02278C1.79002 3.8793 1.84701 3.74169 1.94847 3.64024C2.04993 3.53878 2.18753 3.48178 2.33102 3.48178H18.668C18.8115 3.48178 18.9491 3.53878 19.0506 3.64024C19.152 3.74169 19.209 3.8793 19.209 4.02278V4.75278Z" fill="white"/>
<path d="M10.5 18.831C10.6326 18.831 10.7598 18.7783 10.8536 18.6846C10.9473 18.5908 11 18.4636 11 18.331V9.49902C11 9.36642 10.9473 9.23924 10.8536 9.14547C10.7598 9.0517 10.6326 8.99902 10.5 8.99902C10.3674 8.99902 10.2402 9.0517 10.1464 9.14547C10.0527 9.23924 10 9.36642 10 9.49902V18.331C10 18.4636 10.0527 18.5908 10.1464 18.6846C10.2402 18.7783 10.3674 18.831 10.5 18.831Z" fill="white"/>
<path d="M13.487 18.8076H13.536C13.6606 18.8082 13.7809 18.7623 13.8733 18.6789C13.9658 18.5955 14.0238 18.4805 14.036 18.3566L14.887 9.56759C14.9003 9.43564 14.8606 9.30383 14.7767 9.20115C14.6928 9.09848 14.5715 9.03335 14.4395 9.02009C14.3076 9.00683 14.1758 9.04652 14.0731 9.13045C13.9704 9.21437 13.9053 9.33564 13.892 9.46758L13.036 18.2586C13.0232 18.3905 13.0633 18.5222 13.1475 18.6245C13.2317 18.7269 13.3531 18.7917 13.485 18.8046L13.487 18.8076Z" fill="white"/>
<path d="M7.46293 18.8109H7.51193C7.64386 18.798 7.76527 18.7333 7.84947 18.6309C7.93366 18.5285 7.97376 18.3969 7.96093 18.2649L7.10493 9.47393C7.09167 9.34199 7.02654 9.22071 6.92386 9.13679C6.82118 9.05287 6.68938 9.01317 6.55743 9.02643C6.42549 9.03969 6.30421 9.10483 6.22029 9.2075C6.13637 9.31018 6.09667 9.44199 6.10993 9.57393L6.96593 18.3649C6.97814 18.4889 7.03615 18.6038 7.12863 18.6872C7.22111 18.7706 7.34139 18.8165 7.46593 18.8159L7.46293 18.8109Z" fill="white"/>
</svg>
