<svg width="22" height="22" viewBox="0 0 22 22" fill="none" xmlns="http://www.w3.org/2000/svg">
<path d="M10.6951 8.76211C10.7955 8.66162 10.8579 8.52943 10.8718 8.38805C10.8857 8.24667 10.8501 8.10486 10.7711 7.98678C10.6921 7.86869 10.5747 7.78165 10.4387 7.74047C10.3028 7.69929 10.1567 7.70654 10.0255 7.76096C9.89428 7.81538 9.78599 7.91362 9.71909 8.03893C9.65218 8.16425 9.6308 8.30887 9.65859 8.44819C9.68637 8.5875 9.76159 8.71288 9.87145 8.80294C9.9813 8.893 10.119 8.94219 10.2611 8.94211C10.3417 8.94229 10.4216 8.92647 10.4961 8.89557C10.5706 8.86468 10.6382 8.81931 10.6951 8.76211Z" fill="#3D3D3D"/>
<path d="M9.83099 15.6771C9.91684 15.7631 10.0263 15.8216 10.1454 15.8453C10.2645 15.8691 10.388 15.8569 10.5002 15.8104C10.6124 15.764 10.7083 15.6853 10.7758 15.5843C10.8433 15.4833 10.8793 15.3646 10.8793 15.2432C10.8793 15.1217 10.8433 15.003 10.7758 14.902C10.7083 14.801 10.6124 14.7223 10.5002 14.6758C10.388 14.6294 10.2645 14.6173 10.1454 14.641C10.0263 14.6647 9.91684 14.7233 9.83099 14.8092C9.77355 14.8659 9.72794 14.9335 9.69681 15.008C9.66568 15.0825 9.64966 15.1624 9.64966 15.2432C9.64966 15.3239 9.66568 15.4038 9.69681 15.4783C9.72794 15.5528 9.77355 15.6204 9.83099 15.6771Z" fill="#3D3D3D"/>
<path d="M21.431 2.78105C21.4284 2.20837 21.1998 1.65988 20.7949 1.25484C20.3901 0.849791 19.8417 0.620944 19.269 0.618051L13.212 0.602051H13.204C12.3973 0.604086 11.624 0.924261 11.052 1.49305L1.18702 11.3581C0.845174 11.7007 0.653198 12.165 0.653198 12.6491C0.653198 13.1331 0.845174 13.5974 1.18702 13.9401L8.10902 20.8621C8.45144 21.2044 8.91582 21.3967 9.40002 21.3967C9.88422 21.3967 10.3486 21.2044 10.691 20.8621L20.556 11.0021C21.1268 10.4281 21.4471 9.6515 21.447 8.84205L21.431 2.78105ZM18.983 4.90205C18.983 5.26419 18.8756 5.61819 18.6744 5.9193C18.4732 6.22041 18.1873 6.45509 17.8527 6.59367C17.5181 6.73226 17.15 6.76852 16.7948 6.69787C16.4396 6.62722 16.1134 6.45283 15.8573 6.19676C15.6012 5.94069 15.4268 5.61444 15.3562 5.25926C15.2856 4.90408 15.3218 4.53593 15.4604 4.20136C15.599 3.86679 15.8337 3.58082 16.1348 3.37963C16.4359 3.17844 16.7899 3.07105 17.152 3.07105C17.6375 3.07158 18.1029 3.26466 18.4461 3.60792C18.7894 3.95119 18.9825 4.4166 18.983 4.90205ZM5.82202 12.4021C5.6649 12.3957 5.51634 12.3288 5.40743 12.2154C5.29851 12.1019 5.23769 11.9508 5.23769 11.7936C5.23769 11.6363 5.29851 11.4852 5.40743 11.3717C5.51634 11.2583 5.6649 11.1914 5.82202 11.1851H14.707C14.8641 11.1914 15.0127 11.2583 15.1216 11.3717C15.2305 11.4852 15.2913 11.6363 15.2913 11.7936C15.2913 11.9508 15.2305 12.1019 15.1216 12.2154C15.0127 12.3288 14.8641 12.3957 14.707 12.4021H5.82202ZM11.559 16.5451C11.3902 16.7201 11.1881 16.8598 10.9647 16.956C10.7412 17.0521 10.5009 17.1027 10.2576 17.1049C10.0144 17.1071 9.77318 17.0609 9.54804 16.9688C9.32289 16.8767 9.11835 16.7407 8.94635 16.5687C8.77435 16.3967 8.63835 16.1922 8.54628 15.967C8.45421 15.7419 8.40793 15.5007 8.41014 15.2574C8.41234 15.0142 8.46299 14.7738 8.55911 14.5504C8.65524 14.327 8.79493 14.1249 8.97002 13.9561C9.31543 13.6229 9.7778 13.4387 10.2576 13.4431C10.7375 13.4474 11.1965 13.64 11.5358 13.9793C11.8751 14.3186 12.0676 14.7776 12.072 15.2574C12.0763 15.7373 11.8921 16.1996 11.559 16.5451ZM8.43302 8.32805C8.43325 7.90471 8.58024 7.49455 8.84896 7.16743C9.11767 6.84031 9.49149 6.61648 9.90673 6.53406C10.322 6.45164 10.7529 6.51573 11.1262 6.71541C11.4995 6.9151 11.792 7.23803 11.9539 7.62918C12.1158 8.02034 12.1371 8.45553 12.0141 8.86061C11.8911 9.26569 11.6315 9.61562 11.2795 9.85076C10.9275 10.0859 10.5048 10.1917 10.0835 10.1502C9.66223 10.1087 9.26836 9.92239 8.96902 9.62305C8.79848 9.45337 8.66329 9.25154 8.57129 9.02925C8.47928 8.80696 8.43228 8.56863 8.43302 8.32805Z" fill="#3D3D3D"/>
</svg>
