<svg width="27" height="22" viewBox="0 0 27 22" fill="none" xmlns="http://www.w3.org/2000/svg">
<path d="M26.564 3.20793C26.4526 2.46296 26.0779 1.78259 25.5079 1.29018C24.9378 0.79777 24.2102 0.525921 23.457 0.523926H4.113C3.35975 0.525921 2.63215 0.79777 2.06214 1.29018C1.49212 1.78259 1.11743 2.46296 1.006 3.20793L13.785 11.4769L26.564 3.20793Z" fill="currentColor"/>
<path d="M14.249 13.2139C14.1106 13.3034 13.9493 13.351 13.7845 13.351C13.6197 13.351 13.4584 13.3034 13.32 13.2139L0.958 5.21487V17.8919C0.958794 18.7284 1.29145 19.5304 1.88296 20.1219C2.47446 20.7134 3.27649 21.0461 4.113 21.0469H23.458C24.2945 21.0461 25.0965 20.7134 25.688 20.1219C26.2796 19.5304 26.6122 18.7284 26.613 17.8919V5.21387L14.249 13.2139Z" fill="currentColor"/>
</svg>
