<svg width="16" height="15" viewBox="0 0 16 15" fill="none" xmlns="http://www.w3.org/2000/svg">
<path d="M1.00079 2.77997H7.93779C8.04164 3.25232 8.30372 3.67502 8.68063 3.97807C9.05754 4.28111 9.52666 4.44631 10.0103 4.44631C10.4939 4.44631 10.963 4.28111 11.3399 3.97807C11.7169 3.67502 11.9789 3.25232 12.0828 2.77997H14.6698C14.7869 2.77449 14.8974 2.7241 14.9783 2.63928C15.0593 2.55446 15.1044 2.44172 15.1044 2.32447C15.1044 2.20723 15.0593 2.09449 14.9783 2.00967C14.8974 1.92485 14.7869 1.87446 14.6698 1.86897H12.0818C11.9779 1.39663 11.7159 0.973927 11.3389 0.670884C10.962 0.36784 10.4929 0.202637 10.0093 0.202637C9.52566 0.202637 9.05654 0.36784 8.67963 0.670884C8.30272 0.973927 8.04064 1.39663 7.93679 1.86897H1.00079C0.939173 1.86609 0.877615 1.87573 0.819836 1.89732C0.762057 1.91891 0.709259 1.95199 0.664635 1.99457C0.620011 2.03715 0.58449 2.08835 0.56022 2.14505C0.535951 2.20176 0.523438 2.26279 0.523438 2.32447C0.523438 2.38616 0.535951 2.44719 0.56022 2.5039C0.58449 2.5606 0.620011 2.6118 0.664635 2.65438C0.709259 2.69696 0.762057 2.73004 0.819836 2.75163C0.877615 2.77322 0.939173 2.78286 1.00079 2.77997ZM8.80079 2.32597C8.80079 2.00493 8.92832 1.69703 9.15533 1.47002C9.38235 1.24301 9.69024 1.11547 10.0113 1.11547C10.3323 1.11547 10.6402 1.24301 10.8672 1.47002C11.0943 1.69703 11.2218 2.00493 11.2218 2.32597V2.33297C11.2218 2.65402 11.0943 2.96191 10.8672 3.18893C10.6402 3.41594 10.3323 3.54347 10.0113 3.54347C9.69024 3.54347 9.38235 3.41594 9.15533 3.18893C8.92832 2.96191 8.80079 2.65402 8.80079 2.33297V2.32597ZM14.6708 12.22H12.0818C11.9779 11.7476 11.7159 11.3249 11.3389 11.0219C10.962 10.7188 10.4929 10.5536 10.0093 10.5536C9.52566 10.5536 9.05654 10.7188 8.67963 11.0219C8.30272 11.3249 8.04064 11.7476 7.93679 12.22H1.00079C0.939173 12.2171 0.877615 12.2267 0.819836 12.2483C0.762057 12.2699 0.709259 12.303 0.664635 12.3456C0.620011 12.3882 0.58449 12.4393 0.56022 12.496C0.535951 12.5528 0.523438 12.6138 0.523438 12.6755C0.523438 12.7372 0.535951 12.7982 0.56022 12.8549C0.58449 12.9116 0.620011 12.9628 0.664635 13.0054C0.709259 13.048 0.762057 13.081 0.819836 13.1026C0.877615 13.1242 0.939173 13.1339 1.00079 13.131H7.93779C8.04164 13.6033 8.30372 14.026 8.68063 14.3291C9.05754 14.6321 9.52666 14.7973 10.0103 14.7973C10.4939 14.7973 10.963 14.6321 11.3399 14.3291C11.7169 14.026 11.9789 13.6033 12.0828 13.131H14.6698C14.7314 13.1339 14.793 13.1242 14.8507 13.1026C14.9085 13.081 14.9613 13.048 15.0059 13.0054C15.0506 12.9628 15.0861 12.9116 15.1104 12.8549C15.1346 12.7982 15.1471 12.7372 15.1471 12.6755C15.1471 12.6138 15.1346 12.5528 15.1104 12.496C15.0861 12.4393 15.0506 12.3882 15.0059 12.3456C14.9613 12.303 14.9085 12.2699 14.8507 12.2483C14.793 12.2267 14.7314 12.2171 14.6698 12.22H14.6708ZM10.0098 13.886C9.68938 13.8854 9.38222 13.7581 9.15547 13.5317C8.92873 13.3053 8.80084 12.9984 8.79979 12.678C8.79979 12.3569 8.92732 12.049 9.15433 11.822C9.38135 11.595 9.68924 11.4675 10.0103 11.4675C10.3313 11.4675 10.6392 11.595 10.8662 11.822C11.0933 12.049 11.2208 12.3569 11.2208 12.678V12.685C11.22 13.0056 11.0922 13.3128 10.8654 13.5393C10.6387 13.7659 10.3314 13.8934 10.0108 13.894L10.0098 13.886ZM14.6688 7.04497H7.73179C7.62794 6.57263 7.36585 6.14993 6.98894 5.84688C6.61203 5.54384 6.14291 5.37864 5.65929 5.37864C5.17566 5.37864 4.70654 5.54384 4.32963 5.84688C3.95272 6.14993 3.69064 6.57263 3.58679 7.04497H1.00079C0.883672 7.05046 0.773171 7.10085 0.692232 7.18567C0.611293 7.27049 0.566134 7.38323 0.566134 7.50047C0.566134 7.61772 0.611293 7.73046 0.692232 7.81528C0.773171 7.9001 0.883672 7.95049 1.00079 7.95598H3.58779C3.69164 8.42832 3.95372 8.85102 4.33063 9.15407C4.70754 9.45711 5.17666 9.62231 5.66029 9.62231C6.14391 9.62231 6.61303 9.45711 6.98994 9.15407C7.36685 8.85102 7.62894 8.42832 7.73279 7.95598H14.6698C14.7869 7.95049 14.8974 7.9001 14.9783 7.81528C15.0593 7.73046 15.1044 7.61772 15.1044 7.50047C15.1044 7.38323 15.0593 7.27049 14.9783 7.18567C14.8974 7.10085 14.7869 7.05046 14.6698 7.04497H14.6688ZM6.86879 7.49897C6.86879 7.82002 6.74125 8.12791 6.51424 8.35493C6.28723 8.58194 5.97933 8.70947 5.65829 8.70947C5.33724 8.70947 5.02935 8.58194 4.80233 8.35493C4.57532 8.12791 4.44779 7.82002 4.44779 7.49897C4.44779 7.17793 4.57532 6.86903 4.80233 6.64202C5.02935 6.41501 5.33724 6.28748 5.65829 6.28748C5.97933 6.28748 6.28723 6.41501 6.51424 6.64202C6.74125 6.86903 6.86879 7.17793 6.86879 7.49897Z" fill="#3D3D3D"/>
</svg>
