<svg width="15" height="16" viewBox="0 0 15 16" fill="none" xmlns="http://www.w3.org/2000/svg">
<path d="M0.809868 3.36152H7.74687C7.85072 3.84407 8.1128 4.2759 8.48971 4.58549C8.86662 4.89508 9.33574 5.06385 9.81937 5.06385C10.303 5.06385 10.7721 4.89508 11.149 4.58549C11.5259 4.2759 11.788 3.84407 11.8919 3.36152H14.4789C14.596 3.35591 14.7065 3.30444 14.7874 3.21778C14.8684 3.13113 14.9135 3.01596 14.9135 2.89618C14.9135 2.77641 14.8684 2.66123 14.7874 2.57458C14.7065 2.48793 14.596 2.43645 14.4789 2.43084H11.8909C11.787 1.9483 11.5249 1.51646 11.148 1.20688C10.7711 0.897287 10.302 0.728516 9.81837 0.728516C9.33474 0.728516 8.86562 0.897287 8.48871 1.20688C8.1118 1.51646 7.84972 1.9483 7.74587 2.43084H0.809868C0.748255 2.42789 0.686697 2.43774 0.628918 2.4598C0.571139 2.48185 0.518341 2.51565 0.473717 2.55915C0.429093 2.60266 0.393572 2.65495 0.369302 2.71288C0.345033 2.77081 0.33252 2.83317 0.33252 2.89618C0.33252 2.95919 0.345033 3.02155 0.369302 3.07948C0.393572 3.13741 0.429093 3.18971 0.473717 3.23321C0.518341 3.27671 0.571139 3.31051 0.628918 3.33257C0.686697 3.35462 0.748255 3.36447 0.809868 3.36152ZM8.60987 2.89771C8.60987 2.56974 8.7374 2.25519 8.96441 2.02327C9.19143 1.79136 9.49932 1.66107 9.82037 1.66107C10.1414 1.66107 10.4493 1.79136 10.6763 2.02327C10.9033 2.25519 11.0309 2.56974 11.0309 2.89771V2.90487C11.0309 3.23284 10.9033 3.54739 10.6763 3.77931C10.4493 4.01122 10.1414 4.14151 9.82037 4.14151C9.49932 4.14151 9.19143 4.01122 8.96441 3.77931C8.7374 3.54739 8.60987 3.23284 8.60987 2.90487V2.89771ZM14.4799 13.0054H11.8909C11.787 12.5229 11.5249 12.091 11.148 11.7814C10.7711 11.4718 10.302 11.3031 9.81837 11.3031C9.33474 11.3031 8.86562 11.4718 8.48871 11.7814C8.1118 12.091 7.84972 12.5229 7.74587 13.0054H0.809868C0.748255 13.0025 0.686697 13.0123 0.628918 13.0344C0.571139 13.0564 0.518341 13.0902 0.473717 13.1337C0.429093 13.1772 0.393572 13.2295 0.369302 13.2874C0.345033 13.3454 0.33252 13.4077 0.33252 13.4707C0.33252 13.5338 0.345033 13.5961 0.369302 13.654C0.393572 13.712 0.429093 13.7643 0.473717 13.8078C0.518341 13.8513 0.571139 13.8851 0.628918 13.9071C0.686697 13.9292 0.748255 13.939 0.809868 13.9361H7.74687C7.85072 14.4186 8.1128 14.8505 8.48971 15.1601C8.86662 15.4696 9.33574 15.6384 9.81937 15.6384C10.303 15.6384 10.7721 15.4696 11.149 15.1601C11.5259 14.8505 11.788 14.4186 11.8919 13.9361H14.4789C14.5405 13.939 14.602 13.9292 14.6598 13.9071C14.7176 13.8851 14.7704 13.8513 14.815 13.8078C14.8596 13.7643 14.8952 13.712 14.9194 13.654C14.9437 13.5961 14.9562 13.5338 14.9562 13.4707C14.9562 13.4077 14.9437 13.3454 14.9194 13.2874C14.8952 13.2295 14.8596 13.1772 14.815 13.1337C14.7704 13.0902 14.7176 13.0564 14.6598 13.0344C14.602 13.0123 14.5405 13.0025 14.4789 13.0054H14.4799ZM9.81887 14.7074C9.49846 14.7069 9.1913 14.5767 8.96456 14.3455C8.73781 14.1142 8.60992 13.8006 8.60887 13.4733C8.60887 13.1453 8.7364 12.8308 8.96342 12.5989C9.19043 12.3669 9.49832 12.2367 9.81937 12.2367C10.1404 12.2367 10.4483 12.3669 10.6753 12.5989C10.9023 12.8308 11.0299 13.1453 11.0299 13.4733V13.4804C11.0291 13.808 10.9013 14.1218 10.6745 14.3533C10.4478 14.5848 10.1404 14.715 9.81987 14.7156L9.81887 14.7074ZM14.4779 7.71864H7.54087C7.43702 7.23609 7.17493 6.80426 6.79802 6.49467C6.42111 6.18508 5.952 6.01631 5.46837 6.01631C4.98474 6.01631 4.51562 6.18508 4.13871 6.49467C3.7618 6.80426 3.49972 7.23609 3.39587 7.71864H0.809868C0.692754 7.72424 0.582253 7.77572 0.501314 7.86237C0.420375 7.94903 0.375216 8.0642 0.375216 8.18397C0.375216 8.30375 0.420375 8.41892 0.501314 8.50558C0.582253 8.59223 0.692754 8.6437 0.809868 8.64931H3.39687C3.50072 9.13186 3.7628 9.56369 4.13971 9.87328C4.51662 10.1829 4.98574 10.3516 5.46937 10.3516C5.953 10.3516 6.42211 10.1829 6.79902 9.87328C7.17593 9.56369 7.43802 9.13186 7.54187 8.64931H14.4789C14.596 8.6437 14.7065 8.59223 14.7874 8.50558C14.8684 8.41892 14.9135 8.30375 14.9135 8.18397C14.9135 8.0642 14.8684 7.94903 14.7874 7.86237C14.7065 7.77572 14.596 7.72424 14.4789 7.71864H14.4779ZM6.67787 8.18244C6.67787 8.51042 6.55033 8.82497 6.32332 9.05688C6.09631 9.2888 5.78841 9.41909 5.46737 9.41909C5.14632 9.41909 4.83843 9.2888 4.61142 9.05688C4.3844 8.82497 4.25687 8.51042 4.25687 8.18244C4.25687 7.85446 4.3844 7.5389 4.61142 7.30698C4.83843 7.07506 5.14632 6.94478 5.46737 6.94478C5.78841 6.94478 6.09631 7.07506 6.32332 7.30698C6.55033 7.5389 6.67787 7.85446 6.67787 8.18244Z" fill="white"/>
</svg>
