<svg width="24" height="20" viewBox="0 0 24 20" fill="none" xmlns="http://www.w3.org/2000/svg">
<path d="M7.41403 0.84105C6.50007 0.786769 5.59088 1.0082 4.80423 1.47666C4.01759 1.94511 3.38975 2.63901 3.00206 3.46843C2.61437 4.29786 2.48469 5.2246 2.62982 6.12859C2.77495 7.03258 3.18821 7.87216 3.81605 8.53854C4.44389 9.20493 5.25738 9.66742 6.15113 9.8661C7.04488 10.0648 7.97769 9.99048 8.82872 9.65283C9.67975 9.31519 10.4098 8.72976 10.9242 7.97239C11.4387 7.21502 11.7138 6.32062 11.714 5.40505C11.7461 4.23042 11.3117 3.09088 10.5059 2.23561C9.70015 1.38035 8.58848 0.878944 7.41403 0.84105Z" fill="#3D3D3D"/>
<path d="M17.2 1.49414H17.171C16.6761 1.49915 16.1876 1.60699 15.7366 1.81081C15.2856 2.01464 14.8818 2.30999 14.551 2.67814C13.8704 3.43498 13.4977 4.41907 13.506 5.43687C13.5143 6.45467 13.9032 7.43253 14.596 8.17814C14.9294 8.53706 15.3331 8.82358 15.7819 9.01987C16.2307 9.21616 16.7152 9.31803 17.205 9.31915H17.235C17.7299 9.31413 18.2184 9.20629 18.6694 9.00246C19.1205 8.79864 19.5242 8.50329 19.855 8.13514C20.5404 7.38204 20.9133 6.39628 20.898 5.37814C20.9169 4.37434 20.5392 3.40357 19.8469 2.67645C19.1546 1.94932 18.2036 1.5245 17.2 1.49414Z" fill="#3D3D3D"/>
<path d="M17.3821 10.062H17.0251C15.4243 10.0609 13.8805 10.6563 12.6951 11.732C13.6499 12.4635 14.4346 13.3936 14.9948 14.458C15.5551 15.5224 15.8776 16.6958 15.9401 17.897H23.8401V16.521C23.8379 14.8088 23.1569 13.1673 21.9463 11.9565C20.7357 10.7457 19.0943 10.0644 17.3821 10.062Z" fill="#3D3D3D"/>
<path d="M14.554 17.8979C14.4426 16.1371 13.6645 14.4848 12.3781 13.2773C11.0916 12.0697 9.39341 11.3977 7.62901 11.3979H7.19901C5.35902 11.3979 3.59436 12.1287 2.2931 13.4296C0.991845 14.7305 0.26054 16.4949 0.26001 18.3349L0.26001 19.1589H14.568V18.3349C14.568 18.1883 14.5633 18.0426 14.554 17.8979Z" fill="#3D3D3D"/>
</svg>
