<svg width="24" height="22" viewBox="0 0 24 22" fill="none" xmlns="http://www.w3.org/2000/svg">
<path d="M22.948 10.7338C23.0458 10.627 23.1212 10.5017 23.1698 10.3653C23.2184 10.2289 23.2392 10.0841 23.2309 9.93951C23.2226 9.79494 23.1854 9.65349 23.1215 9.52352C23.0577 9.39355 22.9684 9.2777 22.859 9.1828L12.7 0.292799C12.468 0.097629 12.1736 -0.0077975 11.8705 -0.00431073C11.5673 -0.00082397 11.2755 0.111345 11.048 0.311799L0.853005 9.6568C0.74567 9.75371 0.658931 9.87123 0.597951 10.0024C0.536971 10.1335 0.502997 10.2755 0.498052 10.4201C0.493107 10.5646 0.517291 10.7086 0.569166 10.8436C0.621041 10.9786 0.699545 11.1018 0.800006 11.2058L1.05601 11.4718C1.24757 11.6835 1.51303 11.8136 1.79768 11.8353C2.08233 11.8571 2.36448 11.7689 2.58601 11.5888L3.34801 10.9068V20.8948C3.34774 21.0409 3.37633 21.1855 3.43213 21.3205C3.48794 21.4555 3.56985 21.5781 3.67318 21.6813C3.7765 21.7846 3.8992 21.8664 4.03423 21.9221C4.16925 21.9777 4.31395 22.0062 4.46001 22.0058H8.43401C8.72813 22.0058 9.01021 21.889 9.21819 21.681C9.42617 21.473 9.54301 21.1909 9.54301 20.8968V13.9058H14.611V20.8938C14.6023 21.0362 14.6227 21.1789 14.6711 21.3131C14.7195 21.4473 14.7948 21.5703 14.8923 21.6744C14.9899 21.7785 15.1077 21.8616 15.2385 21.9186C15.3693 21.9756 15.5103 22.0052 15.653 22.0058H19.864C20.1581 22.0058 20.4402 21.889 20.6482 21.681C20.8562 21.473 20.973 21.1909 20.973 20.8968V11.0468L21.443 11.4598C21.702 11.6878 22.243 11.5048 22.658 11.0508L22.948 10.7338Z" fill="currentColor"/>
</svg>
