<?xml version="1.0" encoding="utf-8"?>
<!-- Generator: Adobe Illustrator 26.4.1, SVG Export Plug-In . SVG Version: 6.00 Build 0)  -->
<svg version="1.1" id="Layer_1" xmlns="http://www.w3.org/2000/svg" xmlns:xlink="http://www.w3.org/1999/xlink" x="0px" y="0px"
	 viewBox="0 0 571.1 171.8" style="enable-background:new 0 0 571.1 171.8;" xml:space="preserve">
<g>
	<g>
		<path d="M90.3,121.4L90.7,69h-0.3l-19.3,52.4H58.5L39.8,69h-0.3l0.4,52.4H23.1V47.3h25.5l16.9,47.5h0.4L82,47.3h25.9v74.1H90.3z"
			/>
		<path d="M182.1,121.4l0.4-52.4h-0.3L163,121.4h-12.6L131.7,69h-0.3l0.4,52.4H115V47.3h25.5l16.9,47.5h0.4l16.1-47.5h25.9v74.1
			H182.1z"/>
		<path d="M263.3,121.4l-5.8-14.5h-28.7l-5.4,14.5H204l31.1-74.1h17.4l30.8,74.1H263.3z M243.4,67.1L234,92.5h18.6L243.4,67.1z"/>
		<path d="M300.9,121.4h-10.4V47.3h46.2v9.1h-35.9v23h33.6v8.9h-33.6L300.9,121.4L300.9,121.4z"/>
		<path d="M354.3,121.4H344V47.3h10.4v74.1H354.3z"/>
		<path d="M414.4,106.6h0.2V47.3H425v74.1h-13.1l-39.1-60.5h-0.2v60.5h-10.4V47.3h13.5L414.4,106.6z"/>
		<path d="M432.8,47.3h25.4c4.7,0,9.5,0.7,14.2,2.1c4.7,1.4,9,3.6,12.9,6.6c3.8,3,6.9,6.8,9.3,11.5c2.4,4.7,3.6,10.3,3.6,16.8
			c0,6.3-1.2,11.8-3.6,16.5c-2.4,4.6-5.5,8.5-9.3,11.5s-8.1,5.3-12.9,6.8c-4.7,1.5-9.5,2.2-14.2,2.2h-25.4V47.3z M443.2,112.3h13
			c4.5,0,8.6-0.6,12.4-1.9c3.8-1.3,7.1-3.1,9.8-5.4c2.8-2.4,4.9-5.3,6.4-8.8s2.3-7.4,2.3-11.8c0-4.6-0.8-8.6-2.3-12.1
			s-3.7-6.4-6.4-8.7c-2.8-2.3-6-4.1-9.8-5.3c-3.8-1.2-7.9-1.8-12.4-1.8h-13V112.3z"/>
		<path d="M543.3,61c-1.5-2-3.5-3.7-6-5s-5.3-1.9-8.5-1.9c-1.7,0-3.4,0.2-5.1,0.7c-1.7,0.5-3.3,1.2-4.7,2.2s-2.5,2.3-3.4,3.8
			s-1.3,3.3-1.3,5.4c0,2,0.4,3.7,1.2,5.1s1.9,2.5,3.2,3.5c1.4,0.9,3,1.7,4.8,2.4c1.8,0.7,3.8,1.3,5.9,2c2.5,0.8,5.1,1.6,7.6,2.6
			c2.6,1,4.9,2.3,7,3.9s3.8,3.6,5.1,6s2,5.5,2,9.2c0,3.8-0.7,7.2-2.1,10c-1.4,2.8-3.3,5.2-5.7,7s-5.1,3.2-8.2,4.1
			c-3.1,0.9-6.3,1.4-9.6,1.4c-4.7,0-9.2-0.9-13.6-2.7c-4.4-1.8-8-4.5-10.8-8.1l8.1-6.8c1.7,2.6,4.1,4.7,7,6.3
			c2.9,1.6,6.1,2.4,9.5,2.4c1.7,0,3.5-0.2,5.2-0.7s3.3-1.3,4.8-2.3c1.4-1,2.6-2.4,3.5-3.9c0.9-1.6,1.4-3.5,1.4-5.7s-0.5-4.1-1.4-5.6
			s-2.2-2.8-3.8-3.8s-3.5-1.9-5.6-2.7c-2.1-0.7-4.4-1.5-6.7-2.2c-2.4-0.7-4.7-1.6-7-2.6s-4.4-2.3-6.2-3.9s-3.3-3.5-4.4-5.8
			c-1.1-2.3-1.7-5.2-1.7-8.6c0-3.7,0.7-6.9,2.2-9.5s3.5-4.8,5.9-6.6c2.4-1.7,5.1-3,8.2-3.8c3-0.8,6.1-1.2,9.2-1.2
			c4.3,0,8.4,0.8,12.1,2.3c3.8,1.5,6.8,3.6,9.1,6.2L543.3,61z"/>
	</g>
</g>
</svg>
