<svg width="24" height="24" viewBox="0 0 24 24" fill="none" xmlns="http://www.w3.org/2000/svg">
<path d="M1.03199 12.03C0.915923 12.0732 0.821517 12.1604 0.769135 12.2726C0.716754 12.3849 0.710595 12.5132 0.751988 12.63L1.05199 13.446L3.30899 11.189L1.03199 12.03Z" fill="#3D3D3D"/>
<path d="M3.16797 19.2791L4.52697 23.0171C4.54801 23.0753 4.58041 23.1289 4.62229 23.1745C4.66418 23.2202 4.71471 23.2571 4.77097 23.2831C4.83363 23.3121 4.90189 23.3271 4.97097 23.3271C5.02661 23.3273 5.08182 23.3175 5.13397 23.2981L6.63397 22.7451L3.16797 19.2791Z" fill="#3D3D3D"/>
<path d="M23.348 16.0871L21.7929 11.8101L18.0599 15.543L19.9099 14.862C19.9686 14.8381 20.0314 14.8263 20.0947 14.8272C20.158 14.828 20.2204 14.8416 20.2784 14.8672C20.3363 14.8927 20.3885 14.9296 20.4319 14.9757C20.4753 15.0218 20.5089 15.0761 20.5309 15.1355C20.5528 15.1949 20.5626 15.2581 20.5596 15.3213C20.5567 15.3846 20.541 15.4465 20.5135 15.5036C20.4861 15.5607 20.4475 15.6116 20.4 15.6534C20.3525 15.6953 20.297 15.7271 20.2369 15.7471L17.8869 16.6131C17.8288 16.6346 17.7671 16.6445 17.7051 16.6422C17.6432 16.6398 17.5823 16.6253 17.526 16.5993C17.4697 16.5734 17.4191 16.5367 17.377 16.4911C17.335 16.4456 17.3023 16.3922 17.2809 16.3341C17.2809 16.3341 17.2809 16.3281 17.2809 16.3251L13.325 20.2811L23.0689 16.6911C23.1859 16.6478 23.281 16.56 23.3333 16.4467C23.3856 16.3335 23.3909 16.2042 23.348 16.0871Z" fill="#3D3D3D"/>
<path d="M23.238 8.36306L15.687 0.812064C15.5985 0.723702 15.4785 0.674072 15.3535 0.674072C15.2284 0.674072 15.1085 0.723702 15.02 0.812064L0.86199 14.9681C0.773629 15.0566 0.723999 15.1765 0.723999 15.3016C0.723999 15.4266 0.773629 15.5466 0.86199 15.6351L8.41299 23.1881C8.4565 23.2322 8.50835 23.2672 8.56552 23.291C8.62269 23.3149 8.68404 23.3271 8.74599 23.3271C8.87118 23.327 8.99125 23.2774 9.07999 23.1891L23.238 9.03106C23.3264 8.9424 23.3761 8.82229 23.3761 8.69706C23.3761 8.57184 23.3264 8.45173 23.238 8.36306ZM6.24899 13.7511L4.36099 15.6381C4.31728 15.6823 4.26525 15.7174 4.20791 15.7415C4.15057 15.7656 4.08903 15.7781 4.02685 15.7783C3.96466 15.7785 3.90305 15.7664 3.84555 15.7427C3.78805 15.719 3.7358 15.6842 3.69179 15.6403C3.64779 15.5963 3.6129 15.5441 3.58913 15.4867C3.56536 15.4292 3.55319 15.3676 3.5533 15.3054C3.55341 15.2432 3.56581 15.1817 3.58978 15.1243C3.61375 15.0669 3.64883 15.0148 3.69299 14.9711L5.58099 13.0831C5.6696 12.9952 5.78938 12.946 5.91414 12.9463C6.03891 12.9465 6.15851 12.9961 6.2468 13.0843C6.33509 13.1724 6.38488 13.2919 6.38529 13.4167C6.3857 13.5415 6.3367 13.6613 6.24899 13.7501V13.7511ZM14.399 14.3511C14.2274 14.5157 14.0246 14.6443 13.8025 14.7293C13.5805 14.8143 13.3436 14.854 13.106 14.8461C12.1021 14.7825 11.1617 14.3336 10.481 13.5931C9.9124 13.0429 9.50563 12.3474 9.30499 11.5821C9.20305 11.2548 9.18817 10.9066 9.26182 10.5719C9.33548 10.2371 9.49511 9.92732 9.72499 9.67306C9.97893 9.44266 10.2887 9.28268 10.6236 9.20901C10.9585 9.13533 11.3068 9.15052 11.634 9.25306C12.3991 9.45451 13.094 9.86236 13.643 10.4321C14.951 11.7421 15.285 13.4691 14.399 14.3511ZM20.405 9.03106L18.517 10.9191C18.4733 10.9633 18.4213 10.9984 18.3639 11.0225C18.3066 11.0466 18.245 11.0591 18.1828 11.0593C18.1207 11.0595 18.0591 11.0474 18.0016 11.0237C17.944 11 17.8918 10.9652 17.8478 10.9213C17.8038 10.8773 17.7689 10.8251 17.7451 10.7677C17.7214 10.7102 17.7092 10.6486 17.7093 10.5864C17.7094 10.5242 17.7218 10.4627 17.7458 10.4053C17.7698 10.3479 17.8048 10.2958 17.849 10.2521L19.738 8.36806C19.8266 8.28022 19.9464 8.23104 20.0711 8.23126C20.1959 8.23148 20.3155 8.2811 20.4038 8.36926C20.4921 8.45741 20.5419 8.57694 20.5423 8.70171C20.5427 8.82648 20.4937 8.94633 20.406 9.03506L20.405 9.03106Z" fill="#3D3D3D"/>
</svg>
