<svg width="17" height="23" viewBox="0 0 17 23" fill="none" xmlns="http://www.w3.org/2000/svg">
<path d="M16.14 2.78913C15.9617 2.60944 15.7495 2.46696 15.5157 2.36997C15.2819 2.27298 15.0311 2.22341 14.778 2.22413H13.924V3.08113C13.9237 3.53502 13.7435 3.97027 13.4227 4.2914C13.1019 4.61254 12.6669 4.79333 12.213 4.79413H4.513C4.05877 4.79386 3.62321 4.6133 3.30202 4.29211C2.98083 3.97092 2.80027 3.53536 2.8 3.08113V2.22413H1.943C1.43279 2.22519 0.94377 2.42834 0.582991 2.78912C0.222212 3.14989 0.0190608 3.63891 0.0180039 4.14913L2.33714e-06 20.9381C-0.000391925 21.1912 0.0490998 21.4419 0.145651 21.6759C0.242203 21.9098 0.383922 22.1225 0.562701 22.3016C0.74148 22.4808 0.953814 22.6229 1.18757 22.7199C1.42132 22.817 1.67191 22.867 1.925 22.8671H14.759C15.2692 22.8661 15.7582 22.6629 16.119 22.3021C16.4798 21.9414 16.6829 21.4523 16.684 20.9421L16.7 4.15313C16.701 3.89985 16.6517 3.64888 16.5551 3.41475C16.4584 3.18063 16.3163 2.96799 16.137 2.78913H16.14ZM8.57 8.64813H13.129C13.2994 8.64813 13.4628 8.71582 13.5833 8.83631C13.7038 8.9568 13.7715 9.12023 13.7715 9.29063C13.7715 9.46103 13.7038 9.62445 13.5833 9.74495C13.4628 9.86544 13.2994 9.93313 13.129 9.93313H8.57C8.3996 9.93313 8.23618 9.86544 8.11569 9.74495C7.99519 9.62445 7.9275 9.46103 7.9275 9.29063C7.9275 9.12023 7.99519 8.9568 8.11569 8.83631C8.23618 8.71582 8.3996 8.64813 8.57 8.64813ZM8.57 12.9311H13.129C13.2994 12.9311 13.4628 12.9988 13.5833 13.1193C13.7038 13.2398 13.7715 13.4032 13.7715 13.5736C13.7715 13.744 13.7038 13.9075 13.5833 14.0279C13.4628 14.1484 13.2994 14.2161 13.129 14.2161H8.57C8.3996 14.2161 8.23618 14.1484 8.11569 14.0279C7.99519 13.9075 7.9275 13.744 7.9275 13.5736C7.9275 13.4032 7.99519 13.2398 8.11569 13.1193C8.23618 12.9988 8.3996 12.9311 8.57 12.9311ZM8.57 17.2141H13.147C13.3174 17.2141 13.4808 17.2818 13.6013 17.4023C13.7218 17.5228 13.7895 17.6862 13.7895 17.8566C13.7895 18.027 13.7218 18.1905 13.6013 18.3109C13.4808 18.4314 13.3174 18.4991 13.147 18.4991H8.57C8.3996 18.4991 8.23618 18.4314 8.11569 18.3109C7.99519 18.1905 7.9275 18.027 7.9275 17.8566C7.9275 17.6862 7.99519 17.5228 8.11569 17.4023C8.23618 17.2818 8.3996 17.2141 8.57 17.2141ZM3.1 8.67413C3.15955 8.61438 3.23031 8.56698 3.30821 8.53463C3.38612 8.50229 3.46965 8.48564 3.554 8.48564C3.63836 8.48564 3.72188 8.50229 3.79979 8.53463C3.8777 8.56698 3.94846 8.61438 4.00801 8.67413L4.357 9.02313L5.837 7.54113C5.95754 7.42085 6.12093 7.35339 6.29121 7.35358C6.46149 7.35376 6.62473 7.42159 6.74501 7.54213C6.86528 7.66267 6.93275 7.82605 6.93256 7.99633C6.93237 8.16662 6.86455 8.32985 6.74401 8.45013L4.81 10.3861C4.75045 10.4459 4.67969 10.4933 4.60179 10.5256C4.52388 10.558 4.44036 10.5746 4.35601 10.5746C4.27165 10.5746 4.18812 10.558 4.11022 10.5256C4.03231 10.4933 3.96155 10.4459 3.902 10.3861L3.102 9.58613C3.04176 9.5265 2.99391 9.45556 2.96118 9.37737C2.92846 9.29919 2.91152 9.2153 2.91134 9.13054C2.91115 9.04579 2.92772 8.96183 2.9601 8.8835C2.99248 8.80517 3.04002 8.73402 3.1 8.67413ZM3.1 13.2841C3.15955 13.2244 3.23031 13.177 3.30821 13.1446C3.38612 13.1123 3.46965 13.0956 3.554 13.0956C3.63836 13.0956 3.72188 13.1123 3.79979 13.1446C3.8777 13.177 3.94846 13.2244 4.00801 13.2841L4.357 13.6331L5.837 12.1511C5.95754 12.0309 6.12093 11.9634 6.29121 11.9636C6.46149 11.9638 6.62473 12.0316 6.74501 12.1521C6.86528 12.2727 6.93275 12.4361 6.93256 12.6063C6.93237 12.7766 6.86455 12.9399 6.74401 13.0601L4.81 14.9961C4.75045 15.0559 4.67969 15.1033 4.60179 15.1356C4.52388 15.168 4.44036 15.1846 4.35601 15.1846C4.27165 15.1846 4.18812 15.168 4.11022 15.1356C4.03231 15.1033 3.96155 15.0559 3.902 14.9961L3.102 14.1961C3.04161 14.1365 2.99363 14.0655 2.96082 13.9872C2.92801 13.9089 2.91102 13.8249 2.91083 13.74C2.91065 13.6552 2.92727 13.5711 2.95973 13.4927C2.9922 13.4143 3.03987 13.343 3.1 13.2831V13.2841ZM3.1 17.5671C3.15955 17.5074 3.23031 17.46 3.30821 17.4276C3.38612 17.3953 3.46965 17.3786 3.554 17.3786C3.63836 17.3786 3.72188 17.3953 3.79979 17.4276C3.8777 17.46 3.94846 17.5074 4.00801 17.5671L4.357 17.9161L5.837 16.4341C5.95754 16.3139 6.12093 16.2464 6.29121 16.2466C6.46149 16.2468 6.62473 16.3146 6.74501 16.4351C6.86528 16.5557 6.93275 16.7191 6.93256 16.8893C6.93237 17.0596 6.86455 17.2229 6.74401 17.3431L4.81 19.2791C4.75045 19.3389 4.67969 19.3863 4.60179 19.4186C4.52388 19.451 4.44036 19.4676 4.35601 19.4676C4.27165 19.4676 4.18812 19.451 4.11022 19.4186C4.03231 19.3863 3.96155 19.3389 3.902 19.2791L3.102 18.4791C3.04161 18.4195 2.99363 18.3485 2.96082 18.2702C2.92801 18.1919 2.91102 18.1079 2.91083 18.023C2.91065 17.9382 2.92727 17.8541 2.95973 17.7757C2.9922 17.6973 3.03987 17.627 3.1 17.5671Z" fill="currentColor"/>
<path d="M4.084 3.07996C4.084 3.19348 4.1291 3.30234 4.20937 3.38261C4.28963 3.46287 4.3985 3.50796 4.51201 3.50796H12.212C12.3255 3.50796 12.4344 3.46287 12.5146 3.38261C12.5949 3.30234 12.64 3.19348 12.64 3.07996V1.36696C12.64 1.25345 12.5949 1.14459 12.5146 1.06432C12.4344 0.984058 12.3255 0.938965 12.212 0.938965H4.51201C4.3985 0.938965 4.28963 0.984058 4.20937 1.06432C4.1291 1.14459 4.084 1.25345 4.084 1.36696V3.07996Z" fill="currentColor"/>
</svg>
