<svg width="23" height="23" viewBox="0 0 23 23" fill="none" xmlns="http://www.w3.org/2000/svg">
<path d="M11.285 12.3437C10.393 12.3437 9.52104 12.0792 8.77937 11.5837C8.03771 11.0881 7.45965 10.3837 7.1183 9.55963C6.77695 8.73554 6.68763 7.82873 6.86165 6.95388C7.03567 6.07902 7.46521 5.27542 8.09594 4.64468C8.72668 4.01395 9.53028 3.58441 10.4051 3.41039C11.28 3.23637 12.1868 3.32568 13.0109 3.66704C13.835 4.00839 14.5394 4.58645 15.0349 5.32811C15.5305 6.06978 15.795 6.94174 15.795 7.83373C15.795 8.42599 15.6783 9.01246 15.4517 9.55963C15.225 10.1068 14.8928 10.604 14.474 11.0228C14.0553 11.4416 13.5581 11.7738 13.0109 12.0004C12.4637 12.2271 11.8773 12.3437 11.285 12.3437ZM11.285 4.82673C10.6902 4.82673 10.1088 5.00312 9.61429 5.33357C9.11977 5.66403 8.73436 6.13372 8.50679 6.68323C8.27923 7.23275 8.21974 7.83741 8.33585 8.42074C8.45195 9.00407 8.73844 9.53986 9.15908 9.96036C9.57972 10.3809 10.1156 10.6672 10.699 10.7831C11.2823 10.899 11.887 10.8393 12.4364 10.6116C12.9859 10.3838 13.4554 9.99823 13.7857 9.5036C14.116 9.00897 14.2922 8.4275 14.292 7.83273C14.2924 7.4376 14.2149 7.04625 14.064 6.68108C13.913 6.31591 13.6916 5.98407 13.4123 5.70452C13.1331 5.42498 12.8014 5.20322 12.4364 5.05191C12.0714 4.90061 11.6801 4.82273 11.285 4.82273V4.82673Z" fill="currentColor"/>
<path d="M11.286 22.8677C9.61891 22.8667 7.9728 22.496 6.46618 21.7824C4.95956 21.0687 3.62992 20.0299 2.57299 18.7407L2.18199 18.2597L2.57299 17.7857C3.63077 16.4983 4.96073 15.4612 6.46721 14.7492C7.97368 14.0372 9.61923 13.668 11.2855 13.668C12.9517 13.668 14.5973 14.0372 16.1038 14.7492C17.6103 15.4612 18.9402 16.4983 19.998 17.7857L20.389 18.2597L19.998 18.7407C18.9412 20.0298 17.6117 21.0685 16.1053 21.7822C14.5988 22.4958 12.9529 22.8665 11.286 22.8677ZM4.15199 18.2677C5.06631 19.2464 6.17205 20.0268 7.40056 20.5603C8.62907 21.0938 9.95413 21.3691 11.2935 21.3691C12.6328 21.3691 13.9579 21.0938 15.1864 20.5603C16.4149 20.0268 17.5207 19.2464 18.435 18.2677C17.5207 17.289 16.4149 16.5087 15.1864 15.9752C13.9579 15.4416 12.6328 15.1663 11.2935 15.1663C9.95413 15.1663 8.62907 15.4416 7.40056 15.9752C6.17205 16.5087 5.06631 17.289 4.15199 18.2677Z" fill="currentColor"/>
<path d="M11.285 22.8679C8.72367 22.8695 6.2381 21.9991 4.23739 20.3998C2.23668 18.8006 0.840054 16.5679 0.277367 14.0691C-0.285319 11.5703 0.019469 8.95446 1.14157 6.652C2.26367 4.34954 4.13621 2.49771 6.451 1.40129C8.7658 0.30486 11.3849 0.02918 13.8773 0.619619C16.3696 1.21006 18.5867 2.63143 20.1636 4.6498C21.7405 6.66817 22.5832 9.16326 22.5531 11.7244C22.523 14.2856 21.6219 16.7602 19.998 18.7409C18.9411 20.0301 17.6114 21.0689 16.1048 21.7826C14.5982 22.4962 12.9521 22.8669 11.285 22.8679ZM11.285 1.81893C9.35208 1.81893 7.46257 2.3921 5.85541 3.46597C4.24825 4.53984 2.99562 6.06618 2.25592 7.85196C1.51623 9.63774 1.32269 11.6028 1.69978 13.4985C2.07687 15.3943 3.00766 17.1357 4.37444 18.5025C5.74122 19.8693 7.4826 20.8 9.37838 21.1771C11.2742 21.5542 13.2392 21.3607 15.025 20.621C16.8107 19.8813 18.3371 18.6287 19.4109 17.0215C20.4848 15.4144 21.058 13.5248 21.058 11.5919C21.0584 10.3083 20.8059 9.0371 20.3149 7.85104C19.824 6.66498 19.1042 5.58726 18.1966 4.67943C17.2891 3.77161 16.2116 3.05147 15.0257 2.56014C13.8397 2.06881 12.5687 1.81593 11.285 1.81593V1.81893Z" fill="currentColor"/>
<path d="M3.151 18.268C3.151 18.268 10.721 26.725 18.426 19.11L19.418 18.268C19.418 18.268 12.984 11.592 6.451 15.599L3.151 18.268Z" fill="currentColor"/>
<path d="M11.286 11.5917C13.362 11.5917 15.045 9.90877 15.045 7.83273C15.045 5.75669 13.362 4.07373 11.286 4.07373C9.20995 4.07373 7.52699 5.75669 7.52699 7.83273C7.52699 9.90877 9.20995 11.5917 11.286 11.5917Z" fill="currentColor"/>
</svg>
