<svg width="13" height="22" viewBox="0 0 13 22" fill="none" xmlns="http://www.w3.org/2000/svg">
<path d="M6.09902 21.288C5.5948 21.2772 5.11543 21.0669 4.76601 20.7033C4.41659 20.3396 4.22564 19.8522 4.23502 19.348V18.571C4.22494 18.3198 4.26571 18.0692 4.35487 17.8342C4.44403 17.5992 4.57974 17.3847 4.75387 17.2034C4.928 17.0222 5.13695 16.878 5.36818 16.7794C5.59942 16.6809 5.84818 16.6302 6.09952 16.6302C6.35086 16.6302 6.59961 16.6809 6.83085 16.7794C7.06209 16.878 7.27103 17.0222 7.44516 17.2034C7.61929 17.3847 7.75501 17.5992 7.84417 17.8342C7.93333 18.0692 7.97409 18.3198 7.96401 18.571V19.349C7.97339 19.8532 7.78244 20.3406 7.43302 20.7043C7.0836 21.0679 6.60423 21.2782 6.10002 21.289L6.09902 21.288ZM6.09902 17.311C5.77532 17.3217 5.46903 17.4601 5.24715 17.6961C5.02527 17.932 4.90585 18.2462 4.91502 18.57V19.348C4.90564 19.5092 4.92931 19.6707 4.98457 19.8225C5.03983 19.9743 5.12553 20.1132 5.23639 20.2307C5.34726 20.3482 5.48095 20.4418 5.62929 20.5058C5.77763 20.5698 5.93747 20.6028 6.09902 20.6028C6.26056 20.6028 6.42041 20.5698 6.56874 20.5058C6.71708 20.4418 6.85078 20.3482 6.96164 20.2307C7.07251 20.1132 7.1582 19.9743 7.21346 19.8225C7.26873 19.6707 7.29239 19.5092 7.28301 19.348V18.571C7.29245 18.247 7.17316 17.9326 6.95125 17.6964C6.72934 17.4603 6.4229 17.3217 6.09902 17.311ZM6.95101 15.319L5.55102 15.311C5.39609 15.3295 5.239 15.3158 5.08962 15.2708C4.94024 15.2257 4.8018 15.1502 4.68302 15.049C4.55366 14.9389 4.44928 14.8024 4.37686 14.6488C4.30443 14.4951 4.26562 14.3278 4.26302 14.158C4.22176 13.3781 4.3656 12.5996 4.68278 11.886C4.99996 11.1723 5.48149 10.5439 6.08801 10.052C6.24201 9.92497 6.40202 9.79797 6.57102 9.66297C7.80202 8.68397 9.19702 7.57397 8.98102 5.98097C8.9464 5.71555 8.85837 5.45989 8.72225 5.22941C8.58613 4.99894 8.40474 4.79843 8.18902 4.63997C7.9426 4.45656 7.66243 4.32356 7.36454 4.24857C7.06666 4.17359 6.7569 4.15809 6.45302 4.20297C5.97454 4.30151 5.52496 4.50829 5.13877 4.80748C4.75257 5.10666 4.44 5.49029 4.22502 5.92897L4.22002 5.93797C4.05811 6.23752 3.78512 6.4616 3.45975 6.56201C3.13438 6.66243 2.78259 6.63118 2.48001 6.47497L1.51602 5.96997C1.21031 5.80274 0.978815 5.52651 0.867624 5.19627C0.756434 4.86604 0.773712 4.50603 0.916018 4.18797C1.49587 2.84346 2.53123 1.74648 3.84001 1.08997C5.07538 0.468753 6.47001 0.236547 7.84001 0.423966C9.1231 0.572634 10.3173 1.15374 11.2261 2.07162C12.1349 2.9895 12.7041 4.18946 12.84 5.47397C12.9651 6.516 12.8171 7.57265 12.4106 8.54022C12.004 9.50778 11.3528 10.353 10.521 10.993C10.307 11.182 10.086 11.362 9.87102 11.536C8.92402 12.305 8.10602 12.969 7.98302 14.236C7.96327 14.5 7.85562 14.7499 7.67726 14.9457C7.49891 15.1414 7.26013 15.2718 6.99902 15.316C6.98313 15.3184 6.96709 15.3188 6.95101 15.319ZM6.78902 3.49797C7.43998 3.49789 8.07351 3.70837 8.59502 4.09797C8.88191 4.3112 9.12323 4.57969 9.30476 4.88762C9.48629 5.19555 9.60436 5.5367 9.65202 5.89097C9.91902 7.86697 8.29501 9.15797 6.99101 10.196C6.82401 10.329 6.66702 10.454 6.51702 10.577C5.98797 11.0024 5.56866 11.5486 5.29427 12.1696C5.01987 12.7906 4.8984 13.4683 4.94002 14.146C4.94085 14.219 4.95725 14.2911 4.98812 14.3573C5.01898 14.4235 5.0636 14.4824 5.11901 14.53C5.16787 14.5713 5.22503 14.6016 5.28663 14.6188C5.34823 14.6361 5.41282 14.6399 5.47602 14.63C5.49331 14.6283 5.51073 14.6283 5.52802 14.63L6.92802 14.638C7.03381 14.611 7.12822 14.551 7.19748 14.4666C7.26674 14.3823 7.30722 14.278 7.31301 14.169C7.41991 13.5203 7.6652 12.9022 8.03222 12.3568C8.39924 11.8114 8.87939 11.3513 9.44002 11.008C9.64902 10.838 9.86502 10.663 10.068 10.484C10.8196 9.9202 11.4094 9.16831 11.7779 8.30403C12.1464 7.43976 12.2806 6.49363 12.167 5.56097C12.0564 4.42084 11.5554 3.3539 10.7488 2.54065C9.94206 1.7274 8.87921 1.21777 7.74002 1.09797C6.48097 0.911474 5.19541 1.13847 4.07637 1.74487C2.95734 2.35127 2.06523 3.30434 1.53401 4.46097C1.4619 4.62186 1.45205 4.80378 1.50636 4.97152C1.56067 5.13926 1.67529 5.28088 1.82802 5.36897L2.79202 5.87397C2.86392 5.91131 2.94249 5.93405 3.02323 5.94088C3.10396 5.94772 3.18525 5.93851 3.2624 5.91378C3.33955 5.88905 3.41105 5.8493 3.47277 5.79681C3.53449 5.74433 3.58522 5.68015 3.62202 5.60797L3.62702 5.59897C3.89206 5.06854 4.27544 4.6061 4.74758 4.24737C5.21971 3.88863 5.76796 3.64318 6.35002 3.52997C6.49536 3.50849 6.6421 3.4978 6.78902 3.49797Z" fill="black"/>
</svg>
