<?xml version="1.0" encoding="utf-8"?>
<!-- Generator: Adobe Illustrator 26.4.1, SVG Export Plug-In . SVG Version: 6.00 Build 0)  -->
<svg version="1.1" id="Layer_1" xmlns="http://www.w3.org/2000/svg" xmlns:xlink="http://www.w3.org/1999/xlink" x="0px" y="0px"
	 viewBox="0 0 199.1 187.8" style="enable-background:new 0 0 199.1 187.8;" xml:space="preserve">
<style type="text/css">
	.st0{fill:currentColor;}
</style>
<g>
	<g>
		<polygon class="st0" points="72.4,29.7 35,67.1 35,69.6 35,119.9 36.6,121.5 47.3,110.8 47.3,72.2 77.4,42 120.1,42 150.3,72.2
			150.3,114.8 120.1,145 81.7,145 70.9,155.8 72.4,157.3 125.2,157.3 162.5,119.9 162.5,67.1 125.2,29.7 		"/>
		<path class="st0" d="M58.1,125.6l-8.7,8.7l8.7,8.7l8.7-8.7l0,0l10.7-10.7l6.2,6.2h30.1l21.3-21.3v-30l-21.3-21.3H83.7L62.5,78.5
			V81v27.5l6.4,6.4L58.1,125.6L58.1,125.6z M74.7,83.6l14.1-14.1h19.9l14.1,14.1v19.9l-14.1,14.1H88.8l-14.1-14.1
			C74.7,103.5,74.7,83.6,74.7,83.6z"/>
	</g>
</g>
</svg>
