<svg width="18" height="16" viewBox="0 0 18 16" fill="none" xmlns="http://www.w3.org/2000/svg">
<path d="M4.26998 15.9749C4.13781 15.9747 4.00738 15.9448 3.88834 15.8874C3.7693 15.83 3.66471 15.7465 3.58231 15.6431C3.49991 15.5398 3.44181 15.4193 3.41233 15.2904C3.38284 15.1616 3.38272 15.0278 3.41198 14.8989L4.47698 10.2059L0.862978 7.03688C0.733351 6.92333 0.639874 6.77425 0.59412 6.6081C0.548365 6.44196 0.552342 6.26604 0.605559 6.10214C0.658776 5.93823 0.758895 5.79353 0.893521 5.68595C1.02815 5.57837 1.19137 5.51263 1.36298 5.49688L6.14398 5.06188L8.03398 0.638881C8.10163 0.480198 8.21443 0.344898 8.35835 0.249801C8.50228 0.154704 8.67098 0.104004 8.84348 0.104004C9.01598 0.104004 9.18468 0.154704 9.3286 0.249801C9.47253 0.344898 9.58533 0.480198 9.65298 0.638881L11.543 5.06188L16.323 5.49588C16.4946 5.51163 16.6578 5.57737 16.7924 5.68495C16.9271 5.79253 17.0272 5.93723 17.0804 6.10113C17.1336 6.26504 17.1376 6.44096 17.0918 6.6071C17.0461 6.77325 16.9526 6.92233 16.823 7.03588L13.21 10.2039L14.275 14.8969C14.3134 15.065 14.3016 15.2407 14.2409 15.4022C14.1803 15.5636 14.0736 15.7037 13.9341 15.805C13.7945 15.9063 13.6282 15.9644 13.456 15.972C13.2837 15.9797 13.1129 15.9365 12.965 15.8479L8.84398 13.3849L4.72098 15.8499C4.58464 15.9314 4.42882 15.9746 4.26998 15.9749ZM8.84398 12.3239C9.00282 12.3242 9.15864 12.3674 9.29498 12.4489L13.185 14.7759L12.18 10.3469C12.1447 10.192 12.152 10.0305 12.2012 9.87941C12.2503 9.72835 12.3394 9.5934 12.459 9.48888L15.871 6.49688L11.357 6.08688C11.1983 6.07264 11.0464 6.01553 10.9176 5.92164C10.7889 5.82776 10.6881 5.70064 10.626 5.55388L8.84398 1.37888L7.06298 5.55388C7.00094 5.70011 6.90036 5.82675 6.77197 5.92027C6.64357 6.01379 6.49219 6.07069 6.33398 6.08488L1.81998 6.49488L5.22798 9.48688C5.34776 9.59127 5.43698 9.7262 5.48611 9.8773C5.53525 10.0284 5.54246 10.19 5.50698 10.3449L4.50698 14.7739L8.39698 12.4479C8.53331 12.3664 8.68913 12.3232 8.84798 12.3229L8.84398 12.3239Z" fill="black"/>
</svg>
