<svg width="22" height="22" viewBox="0 0 22 22" fill="none" xmlns="http://www.w3.org/2000/svg">
<path d="M21.8441 8.46009C21.7745 8.24543 21.6434 8.05593 21.467 7.91513C21.2907 7.77433 21.0769 7.68843 20.8521 7.66809L14.5881 7.09909L12.1121 1.30609C12.0232 1.09833 11.8753 0.921226 11.6867 0.796765C11.4981 0.672303 11.2771 0.605957 11.0511 0.605957C10.8251 0.605957 10.6041 0.672303 10.4155 0.796765C10.2269 0.921226 10.079 1.09833 9.99011 1.30609L7.51411 7.10609L1.24911 7.67509C1.02593 7.69725 0.814034 7.78391 0.639285 7.92449C0.464535 8.06507 0.334494 8.25349 0.265037 8.46674C0.195579 8.67999 0.18971 8.90885 0.248147 9.12538C0.306583 9.34191 0.426796 9.53674 0.594111 9.68609L5.32911 13.8381L3.92911 19.9871C3.8786 20.2074 3.89395 20.4377 3.97325 20.6493C4.05255 20.861 4.1923 21.0446 4.37514 21.1775C4.55798 21.3104 4.77583 21.3866 5.00162 21.3966C5.22741 21.4067 5.45118 21.3502 5.64511 21.2341L11.0451 18.0041L16.4451 21.2341C16.6391 21.35 16.8629 21.4064 17.0886 21.3962C17.3144 21.3861 17.5322 21.3099 17.7151 21.1771C17.8979 21.0443 18.0378 20.8608 18.1172 20.6492C18.1967 20.4377 18.2123 20.2074 18.1621 19.9871L16.7621 13.8381L21.5081 9.68609C21.6779 9.537 21.8002 9.34139 21.86 9.12347C21.9197 8.90556 21.9142 8.67491 21.8441 8.46009Z" fill="#3D3D3D"/>
</svg>
