<svg width="23" height="16" viewBox="0 0 23 16" fill="none" xmlns="http://www.w3.org/2000/svg">
<path d="M19.463 7.24798C18.7669 6.9947 18.0308 6.8687 17.29 6.87599C17.247 6.87357 17.2039 6.87995 17.1634 6.89476C17.1229 6.90957 17.0858 6.9325 17.0545 6.96212C17.0231 6.99175 16.9982 7.02747 16.9811 7.06707C16.964 7.10668 16.9553 7.14936 16.9553 7.19249C16.9553 7.23561 16.964 7.27829 16.9811 7.3179C16.9982 7.35751 17.0231 7.39322 17.0545 7.42285C17.0858 7.45248 17.1229 7.47539 17.1634 7.4902C17.2039 7.50501 17.247 7.51141 17.29 7.50898C17.9331 7.49871 18.5729 7.60196 19.1801 7.81398C19.2175 7.83566 19.259 7.84946 19.3019 7.8545C19.3449 7.85955 19.3885 7.85575 19.4299 7.84334C19.4713 7.83092 19.5098 7.81016 19.5429 7.78232C19.5761 7.75447 19.6031 7.72014 19.6225 7.68144C19.6418 7.64274 19.653 7.60049 19.6554 7.55729C19.6578 7.51409 19.6514 7.47086 19.6364 7.43025C19.6215 7.38964 19.5984 7.35253 19.5686 7.32118C19.5388 7.28983 19.5029 7.26492 19.463 7.24798Z" fill="black"/>
<path d="M21.042 11.756L19.734 11.382C19.7057 11.3748 19.6806 11.3584 19.6625 11.3354C19.6444 11.3125 19.6344 11.2842 19.634 11.255V10.818C19.7406 10.7437 19.841 10.6607 19.934 10.57C20.1604 10.3518 20.3403 10.09 20.4628 9.80042C20.5854 9.51083 20.648 9.19944 20.647 8.885V8.285L20.773 8.03201C20.9123 7.75243 20.9849 7.44436 20.985 7.132V5.5C20.985 5.41593 20.9516 5.3353 20.8922 5.27585C20.8327 5.2164 20.7521 5.183 20.668 5.183H17.628C17.0951 5.18353 16.5842 5.39547 16.2073 5.7723C15.8305 6.14913 15.6186 6.66008 15.618 7.193V7.21201C15.6183 7.47125 15.6785 7.72691 15.794 7.959L15.956 8.283V8.8C15.9556 9.18989 16.0474 9.57434 16.224 9.92194C16.4006 10.2695 16.6569 10.5704 16.972 10.8V11.258C16.972 11.329 16.972 11.358 16.711 11.433L16.073 11.615L14.228 10.938C14.2314 10.8939 14.2255 10.8496 14.2107 10.8079C14.1959 10.7662 14.1725 10.7281 14.142 10.696L13.552 10.076V9.038C13.614 8.987 13.676 8.938 13.735 8.878C14.1037 8.53137 14.3978 8.11311 14.5991 7.64883C14.8005 7.18456 14.9049 6.68406 14.906 6.178V5.347C15.1294 4.8647 15.2451 4.33953 15.245 3.808V0.421005C15.245 0.336932 15.2116 0.256295 15.1522 0.196846C15.0927 0.137397 15.0121 0.104004 14.928 0.104004H10.19C9.38807 0.105062 8.61927 0.424105 8.0522 0.991173C7.48513 1.55824 7.16608 2.32705 7.16503 3.12901V3.806C7.16493 4.33753 7.28061 4.8627 7.50403 5.345V6.06001C7.50215 6.62095 7.62228 7.17559 7.85608 7.68549C8.08988 8.1954 8.43176 8.64837 8.85803 9.013V10.078L8.26803 10.698C8.23755 10.7301 8.21415 10.7682 8.19933 10.8099C8.18452 10.8516 8.17862 10.8959 8.18203 10.94L6.23403 11.648C6.09515 11.6986 5.96366 11.7676 5.84303 11.853L5.53703 11.7C6.03875 11.5157 6.46529 11.1704 6.75003 10.718C6.77195 10.6741 6.78336 10.6256 6.78336 10.5765C6.78336 10.5274 6.77195 10.479 6.75003 10.435C6.54154 9.80134 6.4474 9.13563 6.47203 8.469C6.46503 8.245 6.45803 8.034 6.44403 7.845C6.421 7.14199 6.12996 6.47442 5.63055 5.9791C5.13115 5.48379 4.4612 5.19824 3.75803 5.181C3.05382 5.19726 2.38259 5.48263 1.88228 5.97848C1.38197 6.47432 1.09059 7.14297 1.06803 7.847C1.05503 8.035 1.04803 8.247 1.04003 8.471C1.06477 9.13797 0.970634 9.80402 0.762026 10.438C0.740104 10.482 0.728693 10.5304 0.728693 10.5795C0.728693 10.6286 0.740104 10.6771 0.762026 10.721C1.04713 11.1732 1.47404 11.5182 1.97603 11.702L1.12603 12.127C0.904449 12.2371 0.718091 12.407 0.588026 12.6174C0.45796 12.8279 0.389375 13.0706 0.390026 13.318V15.658C0.387605 15.7011 0.393996 15.7442 0.408807 15.7847C0.423619 15.8252 0.44654 15.8622 0.476167 15.8936C0.505795 15.9249 0.541506 15.9499 0.581115 15.9669C0.620724 15.984 0.663399 15.9928 0.706526 15.9928C0.749654 15.9928 0.792329 15.984 0.831938 15.9669C0.871547 15.9499 0.907258 15.9249 0.936886 15.8936C0.966513 15.8622 0.989434 15.8252 1.00425 15.7847C1.01906 15.7442 1.02545 15.7011 1.02303 15.658V13.318C1.02314 13.1883 1.0593 13.0612 1.12745 12.9508C1.19561 12.8404 1.2931 12.7512 1.40903 12.693L2.46703 12.164L2.83503 12.514C3.08264 12.7495 3.4113 12.8809 3.75303 12.8809C4.09476 12.8809 4.42342 12.7495 4.67103 12.514L5.03903 12.164L5.38403 12.337C5.21783 12.6019 5.12947 12.9083 5.12903 13.221V15.658C5.12661 15.7011 5.133 15.7442 5.14781 15.7847C5.16262 15.8252 5.18554 15.8622 5.21517 15.8936C5.24479 15.9249 5.28051 15.9499 5.32012 15.9669C5.35972 15.984 5.4024 15.9928 5.44553 15.9928C5.48865 15.9928 5.53133 15.984 5.57094 15.9669C5.61055 15.9499 5.64626 15.9249 5.67589 15.8936C5.70551 15.8622 5.72843 15.8252 5.74325 15.7847C5.75806 15.7442 5.76445 15.7011 5.76203 15.658V13.22C5.76254 13.0072 5.82829 12.7996 5.95041 12.6252C6.07253 12.4509 6.24516 12.3182 6.44503 12.245L8.49903 11.498L9.35403 12.781C9.40768 12.8619 9.47869 12.9298 9.5619 12.9798C9.64511 13.0298 9.73841 13.0606 9.83503 13.07C9.85703 13.07 9.87869 13.07 9.90003 13.07C9.98604 13.0701 10.0712 13.0531 10.1507 13.0202C10.2301 12.9872 10.3023 12.9389 10.363 12.878L10.885 12.356V15.656C10.8826 15.6991 10.889 15.7422 10.9038 15.7827C10.9186 15.8232 10.9415 15.8602 10.9712 15.8916C11.0008 15.9229 11.0365 15.9479 11.0761 15.9649C11.1157 15.982 11.1584 15.9908 11.2015 15.9908C11.2447 15.9908 11.2873 15.982 11.3269 15.9649C11.3665 15.9479 11.4023 15.9229 11.4319 15.8916C11.4615 15.8602 11.4844 15.8232 11.4992 15.7827C11.5141 15.7422 11.5204 15.6991 11.518 15.656V12.356L12.04 12.878C12.1007 12.939 12.1729 12.9873 12.2523 13.0203C12.3318 13.0532 12.417 13.0701 12.503 13.07C12.5244 13.07 12.546 13.07 12.568 13.07C12.6646 13.0606 12.7579 13.0298 12.8412 12.9798C12.9244 12.9298 12.9954 12.8619 13.049 12.781L13.904 11.498L15.958 12.245C16.1579 12.3182 16.3305 12.4509 16.4526 12.6252C16.5748 12.7996 16.6405 13.0072 16.641 13.22V15.658C16.6386 15.7011 16.645 15.7442 16.6598 15.7847C16.6746 15.8252 16.6975 15.8622 16.7272 15.8936C16.7568 15.9249 16.7925 15.9499 16.8321 15.9669C16.8717 15.984 16.9144 15.9928 16.9575 15.9928C17.0007 15.9928 17.0433 15.984 17.0829 15.9669C17.1225 15.9499 17.1583 15.9249 17.1879 15.8936C17.2175 15.8622 17.2404 15.8252 17.2552 15.7847C17.2701 15.7442 17.2764 15.7011 17.274 15.658V13.22C17.2735 12.7877 17.1058 12.3724 16.806 12.061L16.89 12.038C16.9914 12.0116 17.0901 11.9762 17.185 11.932L17.994 12.741V15.658C17.9916 15.7011 17.998 15.7442 18.0128 15.7847C18.0276 15.8252 18.0505 15.8622 18.0802 15.8936C18.1098 15.9249 18.1455 15.9499 18.1851 15.9669C18.2247 15.984 18.2674 15.9928 18.3105 15.9928C18.3537 15.9928 18.3963 15.984 18.4359 15.9669C18.4755 15.9499 18.5113 15.9249 18.5409 15.8936C18.5705 15.8622 18.5934 15.8252 18.6082 15.7847C18.6231 15.7442 18.6294 15.7011 18.627 15.658V12.738L19.427 11.938C19.4702 11.96 19.5154 11.9777 19.562 11.991L20.87 12.365C21.016 12.4069 21.1444 12.4951 21.2358 12.6163C21.3273 12.7375 21.3768 12.8852 21.377 13.037V15.657C21.3746 15.7001 21.381 15.7432 21.3958 15.7837C21.4106 15.8242 21.4335 15.8612 21.4632 15.8926C21.4928 15.9239 21.5285 15.9489 21.5681 15.9659C21.6077 15.983 21.6504 15.9918 21.6935 15.9918C21.7367 15.9918 21.7793 15.983 21.8189 15.9659C21.8585 15.9489 21.8943 15.9239 21.9239 15.8926C21.9535 15.8612 21.9764 15.8242 21.9912 15.7837C22.0061 15.7432 22.0124 15.7001 22.01 15.657V13.038C22.0092 12.7483 21.9144 12.4667 21.7398 12.2356C21.5653 12.0044 21.3204 11.8361 21.042 11.756ZM2.42203 11.197C2.03087 11.075 1.67986 10.8498 1.40603 10.545C1.49446 10.2999 1.55517 10.0456 1.58703 9.787C1.76137 10.2035 2.0515 10.5613 2.42303 10.818L2.42203 11.197ZM4.23603 12.054C4.106 12.1772 3.93367 12.2459 3.75453 12.2459C3.57538 12.2459 3.40306 12.1772 3.27303 12.054L2.97803 11.774C3.02872 11.6789 3.05517 11.5728 3.05503 11.465V11.128C3.5109 11.2699 3.99915 11.2699 4.45503 11.128V11.465C4.45488 11.5728 4.48133 11.6789 4.53203 11.774L4.23603 12.054ZM3.75403 10.6C3.29934 10.5995 2.86343 10.4186 2.54192 10.0971C2.22041 9.7756 2.03956 9.33969 2.03903 8.885C2.03927 8.83892 2.0294 8.79335 2.01012 8.7515C1.99083 8.70965 1.9626 8.67255 1.92741 8.6428C1.89223 8.61305 1.85094 8.59137 1.80647 8.57932C1.762 8.56726 1.71542 8.56511 1.67003 8.57301V8.492C1.67703 8.274 1.68403 8.069 1.69603 7.892C1.72915 7.34004 1.95576 6.81743 2.33603 6.416C2.51952 6.22645 2.73926 6.07572 2.98217 5.97279C3.22508 5.86985 3.48621 5.81681 3.75003 5.81681C4.01385 5.81681 4.27497 5.86985 4.51789 5.97279C4.7608 6.07572 4.98053 6.22645 5.16403 6.416C5.5443 6.81743 5.77091 7.34004 5.80403 7.892C5.81603 8.068 5.82303 8.274 5.83103 8.492V8.548C5.45945 7.99578 4.90601 7.59132 4.26703 7.405C3.87918 7.28019 3.47445 7.21578 3.06703 7.214C2.98372 7.21724 2.90504 7.25317 2.84803 7.314L2.27703 7.90701C2.22182 7.96805 2.19253 8.04816 2.19532 8.13041C2.19812 8.21266 2.2328 8.2906 2.29203 8.34775C2.35125 8.40489 2.43038 8.43677 2.51268 8.43663C2.59498 8.43649 2.674 8.40435 2.73303 8.347L3.20803 7.854C3.66305 7.85234 4.11031 7.97189 4.50382 8.20037C4.89733 8.42885 5.22289 8.758 5.44703 9.154C5.38379 9.55739 5.17838 9.92486 4.8679 10.19C4.55742 10.4552 4.16234 10.6006 3.75403 10.6ZM5.08603 11.2V10.822C5.45844 10.5659 5.74878 10.2075 5.92203 9.79C5.95359 10.0483 6.01396 10.3022 6.10203 10.547C5.82885 10.8504 5.47942 11.0752 5.09003 11.198L5.08603 11.2ZM8.13303 6.063V5.277C8.13322 5.22925 8.12262 5.18208 8.10203 5.139C7.89999 4.72439 7.795 4.26922 7.79503 3.808V3.131C7.79688 2.49656 8.04986 1.88866 8.49867 1.44023C8.94748 0.9918 9.55558 0.739318 10.19 0.737999H14.614V3.807C14.6141 4.26822 14.5091 4.72339 14.307 5.138C14.2864 5.18108 14.2758 5.22825 14.276 5.276V6.176C14.2778 6.59621 14.1924 7.01221 14.0253 7.39776C13.8581 7.7833 13.6129 8.13001 13.305 8.416C13.2275 8.48872 13.1464 8.55747 13.062 8.622H13.057C12.469 9.06876 11.7387 9.28662 11.002 9.235C10.2111 9.16702 9.47533 8.8017 8.9431 8.21268C8.41087 7.62367 8.12175 6.85477 8.13403 6.061L8.13303 6.063ZM9.91603 12.435C9.91376 12.4374 9.91092 12.4392 9.90778 12.4403C9.90464 12.4413 9.90129 12.4416 9.89803 12.441C9.89474 12.4408 9.89156 12.4398 9.88877 12.438C9.88598 12.4363 9.88366 12.4339 9.88203 12.431L8.89703 10.954L9.21403 10.621L10.709 11.638L9.91603 12.435ZM11.202 11.213L9.49003 10.038V9.447C9.94328 9.69288 10.4445 9.83754 10.959 9.871C11.0424 9.87634 11.1254 9.87901 11.208 9.87901C11.8043 9.88056 12.3919 9.73673 12.92 9.46V10.038L11.202 11.213ZM12.522 12.432C12.5204 12.4349 12.5181 12.4373 12.5153 12.439C12.5125 12.4408 12.5093 12.4418 12.506 12.442C12.5028 12.4426 12.4994 12.4423 12.4963 12.4413C12.4931 12.4402 12.4903 12.4384 12.488 12.436L11.696 11.644L13.19 10.619L13.507 10.952L12.522 12.432ZM18.304 12.165L17.585 11.446C17.5985 11.3842 17.6052 11.3212 17.605 11.258V11.124C17.8076 11.1909 18.0188 11.2283 18.232 11.235H18.305C18.5424 11.2352 18.7784 11.1995 19.005 11.129V11.257C19.005 11.3194 19.0128 11.3815 19.028 11.442L18.304 12.165ZM19.498 10.119C19.3336 10.2796 19.1383 10.4052 18.924 10.4883C18.7097 10.5713 18.4807 10.61 18.251 10.602C17.7956 10.5735 17.3687 10.3705 17.0591 10.0352C16.7496 9.69997 16.5812 9.25826 16.589 8.802V8.208C16.5892 8.15874 16.5779 8.11012 16.556 8.066L16.356 7.675C16.284 7.53091 16.2464 7.37208 16.246 7.211V7.192C16.2466 6.82723 16.3917 6.47754 16.6496 6.2196C16.9076 5.96167 17.2573 5.81653 17.622 5.816H20.353V7.131C20.3529 7.34478 20.3033 7.55562 20.208 7.747L20.048 8.067C20.0261 8.11113 20.0148 8.15975 20.015 8.209V8.886C20.0165 9.11515 19.9717 9.34223 19.8832 9.5536C19.7947 9.76498 19.6643 9.95628 19.5 10.116L19.498 10.119Z" fill="black"/>
<path d="M20.337 13.3091C20.2954 13.3091 20.2542 13.3173 20.2157 13.3332C20.1772 13.3492 20.1423 13.3725 20.1129 13.4019C20.0834 13.4314 20.0601 13.4663 20.0442 13.5048C20.0282 13.5433 20.02 13.5845 20.02 13.6261V15.6581C20.0246 15.7389 20.0599 15.815 20.1187 15.8706C20.1776 15.9263 20.2555 15.9573 20.3365 15.9573C20.4175 15.9573 20.4954 15.9263 20.5543 15.8706C20.6131 15.815 20.6485 15.7389 20.653 15.6581V13.6261C20.653 13.5422 20.6197 13.4617 20.5605 13.4023C20.5013 13.3429 20.4209 13.3093 20.337 13.3091Z" fill="black"/>
<path d="M2.06103 13.728C1.97696 13.728 1.89633 13.7614 1.83688 13.8209C1.77743 13.8803 1.74403 13.961 1.74403 14.045V15.658C1.74161 15.7011 1.748 15.7442 1.76281 15.7847C1.77762 15.8252 1.80054 15.8622 1.83017 15.8936C1.8598 15.9249 1.89551 15.9499 1.93512 15.967C1.97473 15.984 2.0174 15.9928 2.06053 15.9928C2.10366 15.9928 2.14633 15.984 2.18594 15.967C2.22555 15.9499 2.26126 15.9249 2.29089 15.8936C2.32052 15.8622 2.34344 15.8252 2.35825 15.7847C2.37306 15.7442 2.37945 15.7011 2.37703 15.658V14.045C2.37703 13.9611 2.34377 13.8806 2.28454 13.8212C2.22531 13.7618 2.14493 13.7283 2.06103 13.728Z" fill="black"/>
<path d="M13.797 3.92119C12.597 2.72119 10.0971 2.95219 9.07206 3.10619C8.91695 3.1291 8.77535 3.20731 8.67336 3.32639C8.57137 3.44547 8.51585 3.5974 8.51705 3.75419V4.48418C8.5216 4.56505 8.55692 4.64111 8.61577 4.69675C8.67463 4.75239 8.75255 4.78339 8.83355 4.78339C8.91454 4.78339 8.99246 4.75239 9.05132 4.69675C9.11018 4.64111 9.1455 4.56505 9.15004 4.48418V3.75419C9.14995 3.74924 9.15162 3.74443 9.15473 3.74059C9.15784 3.73675 9.16219 3.73413 9.16704 3.73319C9.84744 3.62915 10.5368 3.59564 11.224 3.63318C11.9976 3.61953 12.7509 3.88068 13.3501 4.37018C13.4102 4.42602 13.4896 4.45637 13.5716 4.45485C13.6537 4.45334 13.7319 4.42008 13.7899 4.36207C13.8479 4.30405 13.8812 4.22579 13.8827 4.14376C13.8842 4.06172 13.8539 3.9823 13.7981 3.92219L13.797 3.92119Z" fill="black"/>
<path d="M7.47801 13.9858C7.43638 13.9858 7.39516 13.994 7.3567 14.01C7.31824 14.0259 7.2833 14.0493 7.25386 14.0787C7.22442 14.1081 7.20108 14.1431 7.18515 14.1815C7.16922 14.22 7.16101 14.2612 7.16101 14.3029V15.6568C7.16556 15.7377 7.20089 15.8138 7.25975 15.8694C7.31861 15.9251 7.39652 15.9561 7.47751 15.9561C7.5585 15.9561 7.63643 15.9251 7.69528 15.8694C7.75414 15.8138 7.78947 15.7377 7.79402 15.6568V14.3029C7.79402 14.219 7.76076 14.1385 7.70152 14.079C7.64229 14.0196 7.56191 13.9861 7.47801 13.9858Z" fill="black"/>
<path d="M14.928 13.9858C14.8439 13.9858 14.7633 14.0193 14.7039 14.0787C14.6444 14.1382 14.611 14.2188 14.611 14.3029V15.6568C14.6156 15.7377 14.6509 15.8138 14.7097 15.8694C14.7686 15.9251 14.8465 15.9561 14.9275 15.9561C15.0085 15.9561 15.0864 15.9251 15.1453 15.8694C15.2042 15.8138 15.2395 15.7377 15.244 15.6568V14.3029C15.244 14.219 15.2108 14.1385 15.1515 14.079C15.0923 14.0196 15.0119 13.9861 14.928 13.9858Z" fill="black"/>
</svg>
