<svg width="23" height="23" viewBox="0 0 23 23" fill="none" xmlns="http://www.w3.org/2000/svg">
<path d="M22.3981 7.42188L11.9571 0.193881C11.8228 0.100095 11.6629 0.0498047 11.4991 0.0498047C11.3353 0.0498047 11.1754 0.100095 11.0411 0.193881L0.60208 7.42188C0.495645 7.49548 0.408652 7.5938 0.348562 7.7084C0.288473 7.82301 0.257081 7.95048 0.25708 8.07988V20.1269C0.25708 20.7658 0.510885 21.3785 0.96266 21.8303C1.41443 22.2821 2.02717 22.5359 2.66608 22.5359H20.3341C20.973 22.5359 21.5857 22.2821 22.0375 21.8303C22.4893 21.3785 22.7431 20.7658 22.7431 20.1269V8.07988C22.7431 7.95048 22.7117 7.82301 22.6516 7.7084C22.5915 7.5938 22.5045 7.49548 22.3981 7.42188ZM11.4981 1.83188L21.1351 8.48188L11.4981 15.1319L1.86108 8.48188L11.4981 1.83188ZM20.3321 20.9319H2.66608C2.56102 20.9319 2.45699 20.9112 2.35993 20.871C2.26287 20.8308 2.17468 20.7719 2.10039 20.6976C2.02611 20.6233 1.96718 20.5351 1.92698 20.438C1.88677 20.341 1.86608 20.2369 1.86608 20.1319V10.4169L11.0451 16.7689C11.1794 16.8627 11.3393 16.913 11.5031 16.913C11.6669 16.913 11.8268 16.8627 11.9611 16.7689L21.1401 10.4169V20.1259C21.1406 20.2318 21.1201 20.3367 21.0798 20.4347C21.0394 20.5326 20.98 20.6215 20.9051 20.6963C20.8301 20.7711 20.741 20.8302 20.643 20.8703C20.545 20.9104 20.44 20.9307 20.3341 20.9299L20.3321 20.9319Z" fill="white"/>
</svg>
